<?xml version="1.0" standalone="no"?>
<!DOCTYPE svg PUBLIC "-//W3C//DTD SVG 1.1//EN" "http://www.w3.org/Graphics/SVG/1.1/DTD/svg11.dtd" >
<svg xmlns="http://www.w3.org/2000/svg">
<metadata></metadata>
<defs>
<font id="roboto_condensedbold_italic" horiz-adv-x="1015" >
<font-face units-per-em="2048" ascent="1536" descent="-512" />
<missing-glyph horiz-adv-x="468" />
<glyph unicode="&#xfb01;" horiz-adv-x="1094" d="M50 0l151 869h-127l37 213h119l8 44q36 203 156 319t320 114q109 -3 283 -62l-68 -240q-110 50 -217 50q-83 0 -133 -48.5t-66 -133.5l-8 -43h173l-38 -213h-161l-151 -869h-278zM590 0l188 1082h277l-188 -1082h-277z" />
<glyph horiz-adv-x="0" />
<glyph unicode="&#xd;" horiz-adv-x="468" />
<glyph horiz-adv-x="0" />
<glyph horiz-adv-x="0" />
<glyph horiz-adv-x="49" />
<glyph unicode="&#x9;" horiz-adv-x="49" />
<glyph unicode=" "  horiz-adv-x="468" />
<glyph unicode="&#x09;" horiz-adv-x="468" />
<glyph unicode="&#xa0;" horiz-adv-x="468" />
<glyph unicode="!" horiz-adv-x="527" d="M35 132q0 67 42.5 113t108.5 48q64 0 107 -43t43 -107q0 -68 -41.5 -113.5t-108.5 -47.5q-65 0 -108 42.5t-43 107.5zM126 448l143 1008h293l-207 -1008h-229z" />
<glyph unicode="&#x22;" horiz-adv-x="646" d="M119 985l87 551h199l-24 -151l-100 -400h-162zM436 985l87 551h199l-24 -151l-100 -400h-162z" />
<glyph unicode="#" horiz-adv-x="1035" d="M23 410l30 173h199l90 283h-180l30 174h204l132 416h175l-132 -416h124l132 416h176l-132 -416h172l-31 -174h-195l-90 -283h174l-30 -173h-198l-130 -410h-176l130 410h-124l-129 -410h-175l129 410h-175zM427 583h124l90 283h-123z" />
<glyph unicode="$" d="M64 458h277q-5 -32 -1.5 -74t10.5 -80t34.5 -64t70.5 -26q68 0 105.5 52t47.5 126q17 141 -100 213q-64 40 -105 69.5t-84.5 71.5t-66.5 85t-36 102t-8 129q12 168 114.5 277.5t267.5 133.5l39 214h149l-41 -220q75 -21 126.5 -69t77 -114t34.5 -134t6 -145h-277 q4 25 2 65t-6.5 77.5t-26.5 66t-58 29.5q-33 1 -59 -16t-41.5 -45.5t-24 -58t-11.5 -61.5q-16 -132 104 -209q63 -41 103 -71t83 -73t65.5 -86t35.5 -101.5t8 -128.5q-12 -171 -112.5 -278t-269.5 -131l-38 -199h-147l38 201q-83 17 -143 63t-91 112t-43 139.5t-8 157.5z " />
<glyph unicode="%" horiz-adv-x="1279" d="M183 1099l7 76q13 131 90.5 218t203.5 85q122 -4 184 -91t53 -211l-6 -77q-13 -129 -90.5 -216t-203.5 -83q-81 1 -138 44t-81.5 109.5t-18.5 145.5zM206 194l769 1126l129 -82l-770 -1126zM363 1097q-8 -127 65 -130q46 -2 71 38.5t33 93.5l8 78q8 130 -63 133 q-46 2 -71.5 -39.5t-33.5 -94.5zM598 279l7 77q13 131 90 217.5t204 84.5q122 -4 184.5 -90.5t53.5 -210.5l-7 -78q-8 -84 -43 -151t-100 -109t-150 -40q-121 2 -184.5 89t-54.5 211zM779 277q-2 -28 1 -54t19 -51t45 -26q49 -3 72.5 36.5t31.5 96.5l9 79q8 129 -64 132 q-46 2 -71.5 -39t-33.5 -94z" />
<glyph unicode="&#x26;" horiz-adv-x="1160" d="M37 385q9 121 80.5 211.5t192.5 173.5q-75 190 -66 314q8 108 53.5 196.5t131 143.5t194.5 53q133 -4 213 -101t72 -232q-11 -192 -195 -329l-97 -71l134 -252q56 111 71 223l230 1q-25 -280 -170 -457l135 -259h-296l-37 74q-149 -97 -299 -93q-169 4 -264 118.5 t-83 285.5zM320.5 323q4.5 -39 28.5 -73t66 -35q60 -3 156 52l-161 325l-11 -8q-67 -92 -78 -183q-5 -39 -0.5 -78zM482 1091q-8 -68 36 -167l53 36q92 69 101 166q3 45 -14 80.5t-58 35.5q-51 0 -81 -47t-37 -104z" />
<glyph unicode="'" horiz-adv-x="330" d="M119 983l87 553h208l-25 -161l-89 -392h-181z" />
<glyph unicode="(" horiz-adv-x="652" d="M94 354.5q4 105.5 18 209.5l3 24q17 118 44 231t74.5 237t108 227t148.5 193t192 142l42 -160q-87 -81 -153 -183t-109 -217.5t-69.5 -225.5t-44.5 -239l-4 -28q-10 -79 -14.5 -117t-12 -125t-7 -140.5t6 -133t20.5 -135t43 -115t68 -101.5l-64 -153q-87 59 -148.5 154.5 t-91.5 200t-42 227t-8 228z" />
<glyph unicode=")" horiz-adv-x="652" d="M-88 -300q86 82 152 184.5t109 217.5t70 226t45 239l4 28q8 63 12.5 100t11.5 108t7.5 121t0 118.5t-10 121.5t-24 109.5t-40 103.5t-60.5 84l61 154q89 -57 152.5 -151.5t95 -199.5t45 -228.5t11 -229t-15.5 -209.5l-3 -25q-17 -116 -45.5 -230.5t-78 -239.5 t-112.5 -229t-153.5 -193t-195.5 -137z" />
<glyph unicode="*" horiz-adv-x="912" d="M94 1056l83 174l287 -128l37 354h192l-75 -350l308 120l30 -191l-327 -90l165 -269l-163 -106l-131 292l-218 -279l-148 116l250 268z" />
<glyph unicode="+" horiz-adv-x="954" d="M53 553l46 263h279l68 390h262l-68 -390h275l-46 -263h-274l-71 -407h-262l71 407h-280z" />
<glyph unicode="," horiz-adv-x="498" d="M-117 -287q7 11 31.5 50t33 53t27 48t27 55.5t19 52.5t16.5 61l37 213h240l-33 -197q-20 -123 -85.5 -230t-166.5 -186z" />
<glyph unicode="-" horiz-adv-x="732" d="M102 506l42 236h476l-42 -236h-476z" />
<glyph unicode="." horiz-adv-x="588" d="M43 138q0 69 46 116t115 47q67 0 113 -42.5t46 -108.5q0 -69 -46 -115.5t-116 -46.5q-67 0 -111.5 41.5t-46.5 108.5z" />
<glyph unicode="/" horiz-adv-x="668" d="M-131 -125l698 1581h210l-698 -1581h-210z" />
<glyph unicode="0" d="M85 468.5q1 65.5 10 133.5l39 254q13 92 34 173.5t61 167.5t92.5 146.5t133 98t178.5 35.5q79 -3 139 -32t96.5 -78.5t59.5 -109t30.5 -131t6.5 -137t-10 -133.5l-39 -253q-13 -92 -34 -173t-61 -168t-92.5 -148t-133.5 -99t-179 -35q-79 2 -139.5 31t-96.5 78.5 t-59 109.5t-30 132t-6 137.5zM349.5 388q0.5 -23 2.5 -50.5t8.5 -47.5t16.5 -38t26.5 -28t38.5 -11q27 -2 50.5 6t41.5 28t31.5 39.5t24.5 53.5t17.5 55t12.5 59.5t8 52.5t6 47q1 5 1 8l48 336q0 3 5 40.5t6.5 59.5t3.5 63t-3 67.5t-13.5 54.5t-28 43t-46.5 17 q-31 2 -58 -11t-45 -33.5t-33.5 -55.5t-24 -62.5t-16.5 -69t-10.5 -61.5l-6.5 -52l-48 -336q-1 -8 -4 -31.5t-5 -42.5t-4.5 -48t-2 -52z" />
<glyph unicode="1" d="M220 1000l44 247l541 211h34l-246 -1458h-277l192 1106z" />
<glyph unicode="2" d="M-2 0l33 211l450 491q79 89 132 172.5t64 168.5q2 39 2 83t-23.5 80.5t-69.5 37.5q-45 1 -78.5 -22.5t-52.5 -64t-28.5 -78.5t-14.5 -81l-275 -1q15 201 146.5 341.5t328.5 138.5q179 -4 274 -116t78 -292q-3 -34 -11.5 -69t-17.5 -63.5t-27.5 -63.5t-30 -57t-38.5 -58 t-39 -52.5t-45 -54t-44 -49.5t-47.5 -51.5t-44.5 -48.5l-223 -267h473l-37 -235h-834z" />
<glyph unicode="3" d="M27 400l275 -1q-2 -45 5.5 -82.5t35 -69t73.5 -32.5q80 -3 128.5 59.5t59.5 146.5q23 201 -115 207l-148 1l40 228l123 -2q84 2 130 61t57 149q5 43 0 80t-29.5 67.5t-68.5 31.5q-63 2 -101.5 -47.5t-49.5 -116.5l-276 -1q14 175 139 288.5t301 109.5q180 -4 280 -116 t86 -292q-18 -207 -238 -327q82 -49 115 -136t24 -190q-14 -195 -152 -318.5t-335 -117.5q-176 4 -270.5 122.5t-88.5 297.5z" />
<glyph unicode="4" d="M25 315l20 196l636 945h284l-157 -906h121l-41 -235h-120l-55 -315h-277l56 315h-467zM326 550h206l93 491l-10 -15z" />
<glyph unicode="5" d="M55 407h273q0 -189 112 -192q39 -1 70.5 18t50.5 47t32.5 69t19.5 73.5t10 69.5q21 246 -117 246q-83 1 -145 -78l-222 60l197 736h688l-43 -242h-457l-90 -314q75 55 163 56q64 0 115.5 -21t84 -56.5t57 -83t33.5 -101t13 -110t-3 -110.5q-9 -98 -46 -187.5t-96.5 -160 t-147 -111t-189.5 -37.5q-173 6 -270 129.5t-93 299.5z" />
<glyph unicode="6" d="M86.5 431q-4.5 67 4.5 129l15 112q16 124 52 237.5t98 216.5t143 178.5t193 121t242 46.5h43l-24 -241l-10 1q-298 4 -433 -361q104 105 227 104q60 -1 108.5 -24t79 -61t52.5 -87.5t29.5 -103.5t11.5 -109t-2 -104q-9 -97 -45 -187.5t-94.5 -163t-145 -115.5t-188.5 -41 q-74 2 -134 28.5t-99 70t-67.5 101t-40 121.5t-16 131zM363 520q-32 -302 96 -306q45 -1 80.5 26.5t56 72t31.5 87.5t14 84q6 29 3 73t-10.5 85t-34 70.5t-66.5 30.5q-92 4 -157 -119z" />
<glyph unicode="7" d="M85 0l639 1221h-562l37 235h856l-27 -176l-642 -1280h-301z" />
<glyph unicode="8" d="M60 391q19 242 251 364q-122 115 -109 305q6 90 39.5 167t88.5 133t133 87.5t169 29.5q168 -4 258 -117t75 -283q-16 -211 -220 -332q73 -61 104.5 -149.5t22.5 -188.5q-14 -192 -139 -312.5t-316 -114.5q-176 4 -273.5 119t-83.5 292zM338.5 350.5q3.5 -34.5 12 -64.5 t32.5 -51t59 -22q39 -1 70 19.5t48.5 55t27 69.5t12.5 72q5 27 2 61.5t-11 65t-31 52t-58 22.5q-39 1 -70.5 -19.5t-49.5 -55t-28.5 -70.5t-13.5 -72q-5 -28 -1.5 -62.5zM475 1047q-15 -183 80 -186q112 0 133 200q4 23 1.5 54t-8 59t-25 48t-49.5 21q-34 0 -60 -19.5 t-40.5 -51t-22 -62.5t-9.5 -63z" />
<glyph unicode="9" d="M140 849q-4 55 3 105q9 96 44.5 188t92.5 168.5t144 122.5t188 44q73 -2 132 -30.5t95.5 -74.5t63.5 -106t36 -125.5t13 -132t-6 -126.5l-13 -102q-17 -127 -53 -240t-97.5 -216.5t-142.5 -177.5t-194 -118t-246 -44h-23l25 244h11q161 -4 260.5 84.5t155.5 250.5 q-101 -92 -197 -92q-61 0 -110 22t-81 59t-55.5 85.5t-32.5 102.5t-13 109zM415 884q2 -45 8 -88t31 -74t65 -31q32 0 60.5 19.5t44 39.5t36.5 54l16 132q4 30 6 58.5t0.5 76.5t-9.5 82t-29.5 61t-55.5 28q-44 1 -77.5 -29.5t-51.5 -80t-27 -91.5t-13 -84q-6 -28 -4 -73z " />
<glyph unicode=":" horiz-adv-x="555" d="M45 138q0 69 46 116t115 47q67 0 113 -42.5t46 -108.5q0 -69 -46 -115.5t-116 -46.5q-67 0 -111.5 41.5t-46.5 108.5zM186 956q0 69 46 116t115 47q67 0 113 -42.5t46 -108.5q0 -69 -46 -115.5t-116 -46.5q-67 0 -111.5 41.5t-46.5 108.5z" />
<glyph unicode=";" horiz-adv-x="516" d="M-94 -287q7 11 31.5 50t33 53t27 48t27 55.5t19 52.5t16.5 61l37 213h240l-33 -197q-20 -123 -85.5 -230t-166.5 -186zM170 956q0 69 46 116t115 47q67 0 113 -42.5t46 -108.5q0 -69 -46 -115.5t-116 -46.5q-67 0 -111.5 41.5t-46.5 108.5z" />
<glyph unicode="&#x3c;" horiz-adv-x="898" d="M42 507l42 238l771 365l-51 -295l-476 -204l406 -199l-47 -270z" />
<glyph unicode="=" horiz-adv-x="1009" d="M77 311l42 237h742l-42 -237h-742zM152 744l42 238h742l-42 -238h-742z" />
<glyph unicode="&#x3e;" horiz-adv-x="912" d="M34 128l52 293l484 206l-414 201l47 268l654 -365l-41 -238z" />
<glyph unicode="?" horiz-adv-x="900" d="M135 1068q19 186 131.5 299.5t297.5 109.5q169 -4 258 -110t75 -276q-2 -29 -8 -56t-17.5 -54t-21 -47.5t-30 -47t-31.5 -41.5t-37.5 -42.5t-37.5 -38t-41.5 -40.5t-39.5 -38q-92 -88 -117 -238l-238 -1q8 118 48 210t121 172q47 46 73.5 75t55.5 79t35 99 q21 157 -71 160q-30 1 -54 -16t-39 -45.5t-23.5 -55.5t-13.5 -56zM190 136q0 67 42 113t108 48q65 2 107.5 -41.5t42.5 -108.5q0 -68 -41.5 -113.5t-108.5 -47.5q-64 0 -107 43t-43 107z" />
<glyph unicode="@" horiz-adv-x="1532" d="M33.5 277q4.5 89 19.5 181q22 135 69 268t124 259.5t173.5 222t227.5 152.5t276 55q116 -2 208 -40t151 -104t98 -149.5t54 -182.5t15 -197.5t-16 -199.5q-12 -76 -32.5 -149t-57.5 -151.5t-84.5 -136t-118 -93.5t-153.5 -34q-67 2 -114.5 36.5t-67.5 97.5 q-50 -62 -101.5 -97.5t-114.5 -33.5q-52 1 -90 23.5t-59 60.5t-33.5 83t-14 96.5t1 95t9.5 84.5q13 72 36.5 146t63.5 151.5t90 136.5t121 96.5t150 36.5q72 -2 130 -29t124 -79l-127 -582q-1 -3 -3.5 -17.5t-3.5 -22l-3 -22.5t-1.5 -24t1.5 -22t5 -21t9.5 -16.5t15 -12.5 t22.5 -4q38 -2 71 18.5t56.5 57.5t41.5 77.5t30.5 90.5t19.5 84t12 68q11 68 16.5 132t4 136.5t-13 134.5t-38 120.5t-67 99.5t-103.5 66.5t-144 27.5q-118 3 -221.5 -46.5t-176.5 -130.5t-132 -189.5t-93.5 -214.5t-53.5 -214q-12 -68 -18.5 -132.5t-6 -139t11 -138.5 t36.5 -124.5t66 -103t104 -68.5t146 -27q141 -1 285 68l23 -159q-121 -88 -312 -86q-106 2 -192.5 31.5t-146 80t-102.5 120t-66 149t-32 170t-4.5 179.5zM605 252q7 -93 65 -95q23 -1 45.5 15.5t39 44t27.5 51t18 45.5l120 496q-26 7 -41 7q-45 2 -82.5 -16t-63.5 -52.5 t-46 -73t-33.5 -88t-21 -85.5t-13.5 -78q-18 -120 -14 -171z" />
<glyph unicode="A" horiz-adv-x="1196" d="M-88 0l694 1456h263l191 -1456h-297l-25 298h-387l-127 -298h-312zM456 543h262l-41 516z" />
<glyph unicode="B" horiz-adv-x="1125" d="M9 0l252 1456l422 -1q126 -3 217 -45q90 -42 140 -130q42 -75 42 -177q0 -19 -1 -38q-17 -222 -232 -322q58 -24 92.5 -76.5t43.5 -108.5q6 -39 6 -82q0 -19 -1 -40q-16 -210 -150 -324q-132 -112 -341 -112h-7h-483zM338 244l168 -2q86 2 137.5 56t63.5 142q4 30 4 56 q0 128 -100 136l-205 1zM442 847l136 -2q90 2 144 51t66 138q3 24 3 45q0 49 -18 81q-26 46 -102 50l-165 1z" />
<glyph unicode="C" horiz-adv-x="1143" d="M82 452q-1 19 -1 38q0 56 9 113l38 248q15 100 44.5 190t79 171.5t114.5 139.5t156 92q86 32 185 32h12q91 -1 163 -28.5t120 -73.5t79.5 -111.5t45 -140t13.5 -162.5l-289 1q4 32 4 63q1 18 -1 36q-4 48 -16 86t-47.5 61.5t-94.5 25.5h-9q-55 1 -99 -21 q-48 -24 -76.5 -60t-49.5 -91t-30.5 -102t-16.5 -106l-36 -251q-1 -9 -4 -29q-11 -87 -11 -147q0 -48 7 -79q25 -120 145 -125h17q51 0 89 16q44 18 71.5 57t42.5 83t25 106l281 2q-17 -152 -86 -267t-188 -179q-112 -60 -256 -60h-18q-85 2 -154.5 28t-115.5 69.5t-79 103 t-46 128t-17 143.5z" />
<glyph unicode="D" horiz-adv-x="1132" d="M9 0l252 1456l359 -1q85 -2 157 -26t123.5 -66t90.5 -98.5t58.5 -124.5t26.5 -144q3 -28 3 -57q0 -49 -8 -99l-34 -226q-20 -132 -71 -243t-130 -195t-192 -130q-111 -46 -243 -46h-6h-386zM338 244l71 -2q85 0 147.5 27.5t101 80.5t60 116t33.5 148l33 229 q5 45 7.5 73.5t2.5 70.5q0 4 1 8q0 37 -5 61q-5 27 -17.5 58.5t-33 49.5t-54 31t-77.5 15l-102 1z" />
<glyph unicode="E" horiz-adv-x="985" d="M9 0l252 1456h811l-43 -245h-523l-60 -344h445l-42 -237h-444l-67 -386h526l-43 -244h-812z" />
<glyph unicode="F" horiz-adv-x="955" d="M9 0l252 1456h784l-43 -245h-496l-65 -373h444l-43 -244h-443l-103 -594h-287z" />
<glyph unicode="G" horiz-adv-x="1172" d="M88 450q-1 22 -1 45q0 54 8 109l37 246q15 103 44 193.5t78.5 172t115 139.5t156.5 91q86 30 187 30h12q416 -7 421 -485l-279 1q0 43 -2.5 72.5t-11.5 63t-25 54t-45.5 35.5t-71.5 16h-10q-55 0 -99 -21q-49 -23 -78.5 -59.5t-52 -91t-33.5 -102.5t-19 -107l-35 -249 q-6 -45 -8 -81q-3 -29 -3 -66q0 -8 1 -16q0 -46 10.5 -81t29.5 -66.5t54.5 -49t84.5 -18.5h3q79 0 171 51l51 268h-201l39 222h486l-92 -601q-86 -95 -218 -141q-126 -44 -260 -44h-12q-87 1 -158.5 26t-120 68t-83.5 102t-50 128t-20 146z" />
<glyph unicode="H" horiz-adv-x="1229" d="M9 0l252 1456h287l-102 -589h419l103 589h286l-253 -1456h-286l108 623h-419l-108 -623h-287z" />
<glyph unicode="I" horiz-adv-x="547" d="M21 0l253 1456h287l-253 -1456h-287z" />
<glyph unicode="J" horiz-adv-x="984" d="M11 431l290 -1q-4 -28 -2.5 -63.5t7 -67t28.5 -53.5t60 -23h4q37 0 66 20q31 21 49 59t27 71.5t15 73.5l171 1009h287l-172 -1008q-13 -96 -50.5 -180.5t-96 -150t-142.5 -103.5q-81 -35 -175 -35h-10q-96 2 -168.5 38t-114 98.5t-60.5 142.5q-14 62 -14 134q0 19 1 39z " />
<glyph unicode="K" horiz-adv-x="1109" d="M9 0l252 1456h287l-108 -619l116 154l336 465h367l-527 -653l266 -803h-327l-159 558l-146 -154l-70 -404h-287z" />
<glyph unicode="L" horiz-adv-x="961" d="M9 0l252 1456h287l-210 -1212h501l-43 -244h-787z" />
<glyph unicode="M" horiz-adv-x="1516" d="M9 0l252 1456h370l85 -1047l447 1047h378l-253 -1456h-288l70 403l126 575l-446 -978h-195l-110 1011l-83 -627l-66 -384h-287z" />
<glyph unicode="N" horiz-adv-x="1226" d="M9 0l252 1456h281l255 -966l168 966h286l-253 -1456h-280l-254 965l-168 -965h-287z" />
<glyph unicode="O" horiz-adv-x="1209" d="M84 445q-2 24 -1 47q0 52 8 105l37 242q15 102 45.5 193.5t81.5 174.5t117 143q68 60 160 94q87 32 188 32h12q86 -2 156 -29t117 -72t81.5 -106t49 -131t18.5 -146l2 -42q0 -56 -9 -111l-36 -241q-15 -101 -45.5 -190.5t-81.5 -170t-118 -137.5q-66 -58 -157 -90 q-86 -31 -185 -30h-12q-85 2 -154.5 27t-117.5 68t-83.5 101t-51 126t-21.5 143zM370 441.5q0 -47.5 9.5 -81t26.5 -66t50 -50.5t79 -20h9q54 0 98 21q48 23 77.5 58.5t52 89t33.5 100.5t19 104l35 246q5 40 7 64.5t4 68.5q1 16 1 31q-1 25 -3 43q-4 30 -14 66.5t-27.5 58.5 t-47 38t-69.5 18h-9q-56 -1 -101 -23q-49 -24 -79 -61.5t-53 -93.5t-34.5 -104.5t-19.5 -107.5l-35 -245q-5 -44 -7 -75.5t-2 -79z" />
<glyph unicode="P" horiz-adv-x="1140" d="M9 0l252 1456l467 -1q197 -5 302 -139q91 -116 91 -282q0 -25 -2 -52q-20 -216 -163.5 -343.5t-360.5 -127.5l-210 1l-89 -512h-287zM427 757l185 -2q95 2 150.5 64t68.5 161q4 23 4 48q0 13 -1 26q-3 39 -13 72.5t-37 56.5t-69 26l-209 2z" />
<glyph unicode="Q" horiz-adv-x="1209" d="M84 464q-1 20 -1 41q0 55 9 110l34 224q15 102 45.5 193.5t81.5 174.5t117.5 143t159.5 94q87 32 188 32h12q86 -2 156.5 -29t118 -72t82 -106t48.5 -131t19 -146q1 -21 1 -42q0 -56 -9 -111l-34 -223q-27 -175 -92.5 -308.5t-190.5 -221.5l163 -187l-197 -159l-215 244 q-26 -4 -52 -4q-10 0 -21 1q-86 1 -156 27.5t-117 71.5t-81.5 106t-49 131t-19.5 147zM370 480q-1 -14 -1 -26q0 -28 3 -48q3 -30 13.5 -66.5t28 -59t48 -38.5t70.5 -18h13q52 0 95 22q49 24 79.5 62.5t53 96t34 105.5t19.5 105l33 228q5 39 7 64t4 69v26q0 28 -2 48 q-4 30 -14.5 66.5t-28 58.5t-47.5 38t-70 18h-9q-56 0 -101 -22q-48 -24 -78.5 -62t-53.5 -94t-34.5 -105t-19.5 -107l-32 -227q-5 -39 -7 -64.5t-3 -69.5z" />
<glyph unicode="R" horiz-adv-x="1110" d="M10 0l252 1456l440 -1q196 -6 300 -121q90 -100 89 -259q0 -25 -2 -51q-26 -300 -272 -416l146 -592v-16h-308l-120 532h-146l-92 -532h-287zM431 777l151 -2q94 2 149.5 64.5t68.5 160.5q5 34 5 62q0 140 -115 148l-183 1z" />
<glyph unicode="S" horiz-adv-x="1083" d="M46 460l288 -1q-1 -18 -2 -35q0 -31 4 -57q6 -40 23 -75t53.5 -54t89.5 -19q76 1 121.5 47t54.5 123q2 18 2 34q0 60 -32 98q-41 49 -129 90q-78 37 -137 77t-109.5 94t-74.5 124q-19 56 -19 122q0 16 1 33q12 189 156 304q139 111 325 111h13q191 -4 296 -130 q99 -120 100 -300q0 -10 -1 -21l-286 1q1 13 1 26q0 179 -135 182q-75 0 -126.5 -49.5t-59.5 -125.5q-1 -9 -1 -18q0 -107 170 -183q82 -39 142 -80.5t107.5 -97t68.5 -128.5q16 -55 15 -118q0 -21 -1 -43q-14 -193 -150 -305q-131 -108 -319 -107h-14q-207 5 -325 139 q-111 126 -111 316q0 13 1 26z" />
<glyph unicode="T" horiz-adv-x="1089" d="M154 1211l43 245h981l-43 -245h-349l-210 -1211h-288l210 1211h-344z" />
<glyph unicode="U" horiz-adv-x="1145" d="M80 456l170 1000h288l-168 -1001q-5 -34 -5 -65q1 -11 1 -22q2 -41 13.5 -72.5t43 -50.5t82.5 -21h13q95 0 142 57q50 61 66 174l169 1001h287l-170 -1000q-31 -226 -168 -354q-133 -124 -349 -123h-14q-213 4 -319 133q-86 105 -86 268q0 36 4 76z" />
<glyph unicode="V" horiz-adv-x="1158" d="M157 1456h311l71 -1053l402 1053h327l-635 -1456h-299z" />
<glyph unicode="W" horiz-adv-x="1498" d="M178 1456h282l-11 -908l307 908h242l22 -911l276 911h288l-478 -1456h-288l-30 854l-296 -854h-289z" />
<glyph unicode="X" horiz-adv-x="1122" d="M-68 0l462 746l-216 710h317l112 -498l267 498h339l-452 -735l221 -721h-322l-113 507l-272 -507h-343z" />
<glyph unicode="Y" horiz-adv-x="1088" d="M169 1456h302l99 -651l325 651h323l-548 -942l-89 -514h-291l95 543z" />
<glyph unicode="Z" horiz-adv-x="1063" d="M-19 0l30 189l729 1022h-576l39 245h913l-29 -185l-726 -1027h576l-39 -244h-917z" />
<glyph unicode="[" horiz-adv-x="534" d="M-41 -339l318 2034h379l-35 -224h-102l-248 -1587h102l-35 -223h-379z" />
<glyph unicode="\" horiz-adv-x="768" d="M162 1456h273l221 -1581h-273z" />
<glyph unicode="]" horiz-adv-x="534" d="M-115 -339l36 223h102l248 1587h-103l36 224h379l-318 -2034h-380z" />
<glyph unicode="^" horiz-adv-x="786" d="M64 729l371 727h199l117 -727h-207l-48 452l-206 -452h-226z" />
<glyph unicode="_" horiz-adv-x="804" d="M-124 -228l40 228h754l-40 -228h-754z" />
<glyph unicode="`" horiz-adv-x="668" d="M205 1536h293l144 -310h-217z" />
<glyph unicode="a" horiz-adv-x="945" d="M19 295q5 94 44.5 166t104.5 115t144 64.5t170 21.5h88l13 88q1 30 1.5 59t-16.5 51t-52 22h-5q-48 0 -75 -34q-28 -36 -38 -90l-275 -2q5 81 41 147.5t94 110.5q56 42 130 66q70 23 147 23h6q161 -4 247 -101q72 -82 72 -209q0 -24 -3 -49l-77 -481q-8 -52 -12 -83 q-3 -24 -3 -58v-20q1 -48 14 -84l-1 -18h-271q-8 32 -8 84q-92 -105 -210 -105q-128 3 -202 95q-68 86 -68 202v19zM302 313q-1 -14 -1 -26q0 -83 64 -87h2q71 0 134 64l49 229h-60q-77 -4 -127.5 -52.5t-60.5 -127.5z" />
<glyph unicode="b" horiz-adv-x="994" d="M-5 0l267 1536h276l-105 -543q92 110 211 110h2q68 -1 119 -24.5t80.5 -65.5t47.5 -90.5t23 -111.5q4 -52 4 -97v-18q-1 -52 -7 -113l-8 -71q-9 -80 -24.5 -149.5t-47 -144.5t-74.5 -126.5t-111 -83.5q-62 -29 -139 -29h-14q-138 6 -208 130l-35 -109h-257zM322 289 q29 -72 113 -76h9q40 0 70 15q34 17 52 42.5t31 66.5t18.5 73.5t11.5 77.5q0 4 0.5 6t1 5.5t0.5 6.5l7 73q1 11 4 37.5t5 44.5t3 46v18q0 17 -1 29q-2 20 -8.5 42t-17.5 35.5t-30 23t-44 10.5h-7q-73 0 -132 -80z" />
<glyph unicode="c" horiz-adv-x="924" d="M47 372q-1 20 -1 40q0 44 6 89l9 78q11 86 34.5 161.5t63.5 144t94 117.5q53 48 129 75q70 25 155 25h12q89 -3 155.5 -38t104.5 -94q39 -59 55 -133q13 -60 12 -127v-33l-260 1q3 29 0.5 61.5t-9.5 61t-29.5 47.5t-58.5 21q-25 1 -46.5 -5t-37 -14.5t-29.5 -27.5 t-22.5 -32.5t-16.5 -40.5t-11.5 -41.5t-8 -46l-6 -42t-4.5 -40.5l-7 -79q-1 -12 -5 -43t-6 -52.5t-3 -52.5t4.5 -52.5t15 -42.5t30 -32t49.5 -12h6q61 0 91 43q32 45 44 118l259 1q-15 -174 -129 -287q-110 -109 -275 -109h-12q-73 2 -132 23.5t-98 57.5t-67 85t-39.5 106 t-15.5 121z" />
<glyph unicode="d" horiz-adv-x="995" d="M40 403q2 46 8 94l8 72q9 79 25.5 149.5t49 144.5t77 126t112.5 84q64 30 143 30h10q119 -4 193 -111l102 544h278l-266 -1536h-248l15 110q-104 -132 -229 -132q-57 1 -102.5 19.5t-75.5 48.5t-51 73t-31.5 88t-14.5 97q-3 38 -3 73v26zM316 348l4.5 -40.5t10 -37 t18 -28.5t27.5 -20.5t39 -6.5h2q71 0 134 75l87 497q-18 38 -43 57.5t-64 21.5h-8q-40 0 -71 -17q-34 -19 -54 -47t-34 -73t-19.5 -77.5t-10.5 -77.5l-8 -73q-1 -7 -3.5 -31t-4.5 -39q0 -15 -2 -41q-1 -13 -1 -23t1 -19z" />
<glyph unicode="e" horiz-adv-x="961" d="M57 479l11 89q11 86 34.5 163t64.5 147t95 120q55 50 132 78q72 27 156 26h12q86 -2 151.5 -33.5t101.5 -83t58.5 -119t22.5 -141.5t-7 -150l-19 -129h-540q-4 -31 -3 -58q0 -169 141 -172h10q121 0 232 95l93 -172q-60 -81 -160 -121q-95 -39 -197 -38h-10 q-106 1 -185.5 41.5t-124.5 109.5q-44 69 -62 158q-11 55 -11 114q0 37 4 76zM349 644l275 -1l5 29q6 37 6 67q0 125 -100 130h-5q-32 0 -60 -13q-30 -14 -48 -34t-33.5 -55t-23 -59.5t-16.5 -63.5z" />
<glyph unicode="f" horiz-adv-x="661" d="M58 0l151 869h-127l37 213l127 1l12 92q21 173 122 280q100 105 265 105h6q52 0 132 -20l-23 -228q-36 11 -67 11q-65 0 -104 -40.5t-52 -107.5l-14 -93h164l-37 -213h-164l-151 -869h-277z" />
<glyph unicode="g" horiz-adv-x="1009" d="M-13 -297l113 194q82 -93 207 -98h12q168 0 208 198l20 90q-98 -108 -214 -108q-67 1 -118 25t-81.5 64t-51.5 92.5t-26.5 109.5t-7.5 116v25q0 45 5 86l8 71q9 80 26.5 151t51 144.5t79 125.5t115.5 83q66 30 145 30h10q143 -5 210 -118l34 99l252 -1l-184 -1082 q-28 -205 -158 -319q-124 -108 -316 -108h-21q-89 2 -174.5 36t-143.5 94zM324 337q13 -118 106 -121h2q73 0 135 62l93 520q-37 65 -110 69h-10q-172 0 -203 -293l-8 -73q-7 -76 -7 -123q0 -25 2 -41z" />
<glyph unicode="h" horiz-adv-x="988" d="M-12 0l267 1536h276l-106 -550q102 117 225 117h2q55 -1 98.5 -20t69.5 -50.5t45 -73.5t24.5 -88.5t7.5 -94.5v-22q0 -37 -5 -73l-114 -681h-277l113 684q3 23 4 38.5t0.5 39.5t-5.5 39.5t-13.5 31.5t-26 24t-41.5 8h-2q-65 0 -126 -70l-139 -795h-277z" />
<glyph unicode="i" horiz-adv-x="511" d="M8 0l188 1082h277l-188 -1082h-277zM232 1357q0 66 42 111t108 45h6q59 -1 100 -41q43 -42 43 -105q0 -67 -42 -112t-108 -45h-6q-61 0 -101 40q-42 42 -42 107z" />
<glyph unicode="j" horiz-adv-x="498" d="M-218 -423l21 234q45 -13 74 -13q99 0 125 144l195 1140h277l-194 -1139q-11 -82 -36.5 -149t-68.5 -121t-109.5 -84t-150.5 -30q-67 1 -133 18zM227 1357q0 66 42 110t108 46h6q59 0 100 -41q43 -42 43 -105q0 -67 -42 -112t-108 -45h-6q-60 0 -100 40q-43 43 -43 107z " />
<glyph unicode="k" horiz-adv-x="961" d="M-5 0l267 1536h276l-153 -833l44 54l245 325h345l-394 -459l220 -623h-303l-118 413l-97 -92l-56 -321h-276z" />
<glyph unicode="l" horiz-adv-x="511" d="M8 0l266 1536h278l-267 -1536h-277z" />
<glyph unicode="m" horiz-adv-x="1483" d="M-4 0l188 1082l256 1l-18 -102q109 121 246 121h9q155 -5 202 -146q122 147 266 147h8q65 -1 112 -27.5t70.5 -69t37.5 -96.5q13 -51 14 -104q0 -4 -1 -8q-1 -56 -4 -110l-114 -688h-277l115 690q3 23 4 37t1.5 38t-4 39t-13 31t-24.5 23.5t-39 7.5q-71 0 -130 -97 l-6 -48l-125 -721h-276l114 688q3 22 4 31.5t2 32.5t-1 35t-6.5 29.5t-13.5 26.5t-23.5 16t-34.5 7q-65 0 -126 -79l-137 -787h-276z" />
<glyph unicode="n" horiz-adv-x="988" d="M-12 0l188 1082l258 1l-20 -109q111 129 245 129h8q64 -1 111 -28t70 -69q24 -44 38 -98q13 -49 13 -99q-1 -5 -1 -11q-2 -56 -5 -110l-115 -688h-277l114 690q3 30 4 48t-1.5 45.5t-10.5 43t-27 27.5t-48 12q-39 0 -68.5 -20.5t-60.5 -58.5l-137 -787h-278z" />
<glyph unicode="o" horiz-adv-x="998" d="M53 505l8 70q12 106 49 199.5t96.5 169t150.5 118.5q85 40 188 40h14q72 -2 130.5 -24t98 -59t68.5 -87t42 -108q13 -56 18 -120q2 -23 2 -46q0 -41 -6 -82l-8 -71q-12 -106 -49 -199.5t-96.5 -168.5t-150.5 -117q-85 -40 -187 -40h-14q-106 3 -182.5 48.5t-115.5 121.5 q-39 74 -53 164q-8 50 -8 104q0 43 5 87zM332 503q-6 -65 -6 -113q0 -51 7 -82q22 -90 98 -95h8q38 -1 69 17q34 20 54 49t35 73t21 78t11 75l7 72q6 62 6 108q0 57 -9 91q-23 88 -99 93h-9q-45 0 -80 -26q-38 -29 -59 -79t-31.5 -94.5t-15.5 -93.5z" />
<glyph unicode="p" horiz-adv-x="994" d="M-77 -416l260 1498l252 1l-15 -100q98 120 223 120h2q275 -3 275 -395q0 -60 -7 -130l-8 -70q-9 -77 -25.5 -146.5t-49 -143t-76 -125.5t-110.5 -84q-62 -29 -137 -29h-14q-127 5 -198 109l-96 -505h-276zM320 283q32 -64 112 -69h11q27 0 49 8q27 10 45.5 26.5t34 42.5 t24.5 51t16 58.5t10.5 57t6.5 54.5l7 72q1 6 3.5 31.5t3.5 38.5t3 40v20q0 13 -1 22q-2 16 -5 38.5t-10.5 36t-18.5 27.5t-27.5 20.5t-38.5 7.5h-2q-73 0 -133 -73z" />
<glyph unicode="q" horiz-adv-x="997" d="M42 389q0 54 7 110l8 72q9 80 25 149.5t48 143t75.5 125t112.5 83.5q64 30 143 30h10q140 -5 208 -130l43 110h245l-260 -1498h-278l98 501q-93 -106 -208 -106h-2q-66 1 -116.5 25t-80.5 66t-48.5 92.5t-24.5 111.5q-6 56 -6 107q0 4 1 8zM318 346q1 -16 4 -38.5t11 -37 t18.5 -28.5t27 -20.5t37.5 -7.5h2q72 0 131 67l91 518q-31 66 -106 69h-8q-40 0 -72 -18q-35 -19 -55 -47.5t-34.5 -74t-20 -79t-10.5 -78.5l-7 -72q-1 -6 -3.5 -31.5t-3.5 -38.5t-2 -39q-1 -14 -1 -24.5t1 -19.5z" />
<glyph unicode="r" horiz-adv-x="669" d="M-6 0l188 1082l259 1l-22 -119q41 65 87 103t110 38q32 0 85 -15l-38 -280q-67 9 -88 10h-2q-110 0 -177 -105l-125 -715h-277z" />
<glyph unicode="s" horiz-adv-x="912" d="M6 336l263 -1v-15q-1 -59 21 -93q24 -38 91 -38q53 1 89 28.5t45 79.5q2 16 -1.5 30.5t-14 27.5t-20 22.5t-28 20t-28 15.5t-30.5 15t-25 12q-59 29 -101 57t-80 67t-56 90q-15 44 -15 96v17q5 103 62.5 181t145.5 118q84 38 180 37h10q158 -5 254 -95q94 -89 93 -240v-6 h-276v17q-1 47 -15 77q-18 36 -71 36q-47 0 -80.5 -32t-42.5 -79q-3 -15 0.5 -29t14 -26t20 -21t27.5 -19t27.5 -15t29.5 -14t24 -11q64 -29 108 -57t83 -67q38 -40 56 -93q14 -43 15 -96q0 -12 -1 -24q-5 -80 -42 -145t-96 -105q-58 -41 -130 -61q-66 -19 -136 -18h-14 q-158 4 -258 102q-99 96 -98 248v6z" />
<glyph unicode="t" horiz-adv-x="620" d="M69 869l37 213h121l47 266h276l-46 -266h140l-37 -213h-140l-91 -539q-3 -27 -4 -50t12.5 -39.5t43.5 -17.5h7q22 0 61 5l-25 -222q-62 -25 -144 -25q-67 1 -116 27.5t-75 71.5q-24 44 -34 100q-6 34 -6 72q0 24 2 48l93 569h-122z" />
<glyph unicode="u" horiz-adv-x="988" d="M56 272q0 6 -1 12q0 49 4 98l117 700h276l-117 -704q-1 -32 -3 -67q0 -4 -1 -7q0 -32 16 -58q17 -30 55 -30h7q77 0 143 83l136 783h279l-188 -1082h-257l18 99q-101 -120 -236 -120h-2q-64 1 -112 26t-74.5 65.5t-43 93t-16.5 108.5z" />
<glyph unicode="v" horiz-adv-x="902" d="M102 1082h283l26 -677l238 677h294l-457 -1082h-263z" />
<glyph unicode="w" horiz-adv-x="1267" d="M119 1082h260l-13 -601l243 601h197l34 -605l199 605h270l-405 -1082h-229l-39 622l-256 -622h-231z" />
<glyph unicode="x" horiz-adv-x="909" d="M-69 0l343 566l-152 516h283l66 -319l172 319h303l-330 -542l159 -540h-283l-75 337l-181 -337h-305z" />
<glyph unicode="y" horiz-adv-x="897" d="M-51 -419l24 221q22 -2 30 -2h4q62 0 101 27q40 28 68 89l39 88l-112 1078h289l19 -606l245 606h302l-558 -1245q-25 -59 -53.5 -105.5t-68 -87t-92 -62.5t-115.5 -22q-46 0 -122 21z" />
<glyph unicode="z" horiz-adv-x="909" d="M-17 0l30 188l501 658h-389l37 236h727l-28 -183l-507 -664h409l-37 -235h-743z" />
<glyph unicode="{" horiz-adv-x="602" d="M45 512l23 208q141 10 172 209l28 203q45 360 365 467l38 -164q-40 -21 -68.5 -54.5t-45.5 -77.5t-26 -82t-16 -89l-27 -203q-29 -213 -207 -315q123 -104 104 -305l-27 -204q-16 -122 -11 -172q9 -91 69 -131l-61 -161q-98 39 -157 111t-78.5 159.5t-8.5 194.5l28 204 q4 48 4.5 90t-24 74t-74.5 38z" />
<glyph unicode="|" horiz-adv-x="513" d="M31 -270l270 1726h173l-270 -1726h-173z" />
<glyph unicode="}" horiz-adv-x="602" d="M-73 -197q40 21 68.5 54.5t45.5 77.5t26 82t16 89l27 203q29 216 211 314q-131 102 -108 306l27 204q16 121 11 170q-9 92 -70 133l65 160q143 -57 200 -179t40 -285l-28 -204q-5 -41 -5 -70t7.5 -60.5t30.5 -50t62 -23.5l-23 -208q-143 -10 -173 -207l-28 -203 q-46 -361 -361 -470z" />
<glyph unicode="~" horiz-adv-x="1117" d="M73 415q5 73 25.5 142.5t56.5 133t97.5 102t139.5 36.5q122 -4 218 -133q1 -1 9.5 -13.5t10.5 -15t10 -13.5t12 -14t12.5 -10.5t15 -10t15.5 -5t18 -2.5q91 0 123 181l197 2q-7 -74 -26.5 -143.5t-55.5 -135t-97 -104.5t-140 -38q-121 4 -217 134q-3 4 -13 17.5 t-14.5 19.5t-15 17t-18.5 15.5t-19.5 9t-23.5 4.5q-30 0 -52.5 -17.5t-35.5 -49.5t-19 -55.5t-12 -56.5z" />
<glyph unicode="&#xa1;" horiz-adv-x="548" d="M-45 -369l207 1007h229l-142 -1007h-294zM181 941q0 67 42 114t109 47q64 2 107 -41.5t43 -108.5q0 -67 -42.5 -113.5t-108.5 -46.5q-64 -2 -107 41.5t-43 107.5z" />
<glyph unicode="&#xa2;" horiz-adv-x="1022" d="M75 336q-9 82 4 165l9 78q13 99 43 184.5t79 158.5t125 120t170 57l38 219h187l-41 -236q115 -40 167.5 -149t46.5 -256l-260 1q3 29 0.5 61.5t-9.5 61t-29.5 47.5t-58.5 21q-25 1 -46.5 -5t-37 -14.5t-29.5 -27.5t-22.5 -32.5t-16.5 -40.5t-11.5 -41.5t-8 -46l-6 -42 t-4.5 -40.5l-7 -79q-1 -12 -5 -43t-6 -52.5t-3 -52.5t4.5 -52.5t15 -42.5t30 -32t49.5 -12q66 -2 97.5 43t43.5 118l259 1q-15 -154 -107 -262t-236 -129l-40 -229h-187l42 241q-75 21 -128 72t-77.5 118.5t-33.5 149.5z" />
<glyph unicode="&#xa3;" horiz-adv-x="1052" d="M-2 0l37 243l70 -2q25 11 42 30t27 48.5t14 48t10 54.5l22 153h-124l41 237h118l30 227q14 122 68 220.5t151.5 159.5t220.5 57q119 -2 198.5 -61t112.5 -151t27 -208l-274 1q3 25 0 55.5t-9 57.5t-27 45.5t-53 18.5t-57.5 -20t-40 -52t-22 -61.5t-11.5 -60.5l-26 -228 h243l-42 -237h-234l-17 -136q-16 -116 -95 -198l523 3l-42 -244h-881z" />
<glyph unicode="&#xa4;" horiz-adv-x="1384" d="M-4 130l154 127q-58 181 -37 345q25 211 171 374l-115 155l150 133l110 -143q175 116 354 112q184 -2 321 -116l169 148l122 -157l-170 -141q63 -185 42 -352q-25 -202 -157 -359l112 -149l-152 -134l-102 132q-183 -129 -369 -125q-197 5 -331 126l-152 -132zM294 599 q-15 -106 16 -202.5t109 -160.5t188 -68q91 -3 175.5 34t146.5 100t104 145t54 170q14 106 -17 201t-108.5 159t-186.5 68q-91 3 -175.5 -33.5t-147 -98.5t-104.5 -144t-54 -170z" />
<glyph unicode="&#xa5;" horiz-adv-x="1078" d="M75 277l31 175h255l21 114h-257l31 176h204l-176 714h303l96 -548l285 548h325l-423 -714h166l-31 -176h-236l-21 -114h238l-31 -175h-236l-49 -277h-287l49 277h-257z" />
<glyph unicode="&#xa6;" horiz-adv-x="511" d="M-28 -270l138 795h256l-138 -795h-256zM139 698l132 758h256l-132 -758h-256z" />
<glyph unicode="&#xa7;" horiz-adv-x="1107" d="M-22 -33l275 -1q-8 -180 148 -180q73 0 123.5 37t62.5 107q5 31 -5.5 57.5t-25.5 43t-45.5 34.5t-48 25.5t-52.5 21.5q-64 26 -111 51t-93 61.5t-73.5 77.5t-42.5 98t-9 125q15 177 181 283q-82 114 -69 278q10 123 80.5 214t175 135t227.5 41q192 -4 292 -119.5 t92 -308.5l-275 1q6 187 -129 191q-74 0 -124.5 -40t-62.5 -112q-5 -33 4 -59.5t22 -43.5t42.5 -34t47.5 -24.5t56 -22.5q82 -32 140 -65t107.5 -81.5t71.5 -115.5t15 -152q-16 -181 -182 -281q81 -112 68 -278q-10 -125 -79 -214t-172 -130.5t-228 -38.5 q-197 4 -304.5 113.5t-99.5 305.5zM364 556q-13 -78 27.5 -120.5t128.5 -78.5q15 -7 47.5 -19t47.5 -18q65 60 80 141q7 39 -3.5 71t-38 56t-54 39.5t-66.5 32.5q-15 6 -47.5 18t-48.5 19q-56 -55 -73 -141z" />
<glyph unicode="&#xa8;" horiz-adv-x="940" d="M209 1361q0 56 39.5 93.5t95.5 39.5q55 0 95.5 -35.5t40.5 -89.5q0 -56 -39 -93t-95 -39q-56 0 -96.5 34.5t-40.5 89.5zM684 1361q0 56 39 93t95 39q55 0 95.5 -35.5t40.5 -88.5q0 -56 -39 -93t-95 -39q-56 0 -96 34.5t-40 89.5z" />
<glyph unicode="&#xa9;" horiz-adv-x="1568" d="M103 722q16 148 84 286t171 242.5t243.5 166.5t292.5 59q116 -1 217 -42.5t173 -113.5t121.5 -165t68.5 -201t7 -219q-16 -148 -84 -286t-170.5 -243t-243 -167t-292.5 -59q-117 2 -218 44t-173.5 113.5t-121.5 164.5t-68 201t-7 219zM223 722q-12 -91 0.5 -180 t49.5 -167t93.5 -138.5t138.5 -96t179 -36.5q127 -3 246 49t206.5 140t147 204t76.5 239q12 91 -0.5 180t-49.5 166t-93.5 136.5t-138 95t-178.5 37.5q-127 3 -246 -48.5t-207 -139t-148 -203t-76 -238.5zM433 669l12 119q19 167 119.5 278.5t262.5 109.5q147 -4 225.5 -87 t74.5 -229l-152 1q4 86 -30 132.5t-118 48.5q-99 2 -156.5 -72t-71.5 -181l-14 -121q-7 -41 -1.5 -84.5t18.5 -80t46 -60.5t81 -26q168 -7 199 178l151 1q-12 -151 -104 -234.5t-245 -79.5q-103 2 -175 58.5t-101 142t-21 186.5z" />
<glyph unicode="&#xaa;" horiz-adv-x="791" d="M182 911q4 123 90 181.5t216 58.5l78 -1l12 54q21 121 -50 124q-85 1 -108 -99l-165 14q8 109 83.5 172.5t186.5 61.5q114 -2 169 -81t46 -196l-48 -314q-16 -94 -5 -183l-157 -1q-2 44 -1 66q-72 -77 -161 -77q-91 0 -140.5 63.5t-45.5 156.5zM347 915q-12 -78 61 -82 q47 0 120 56l34 146l-66 -1q-59 -4 -100 -34t-49 -85z" />
<glyph unicode="&#xab;" horiz-adv-x="902" d="M56 513l1 19l288 391h185l-265 -414l114 -385h-157zM387 513l1 19l288 391h185l-265 -414l114 -385h-157z" />
<glyph unicode="&#xac;" horiz-adv-x="973" d="M127 634l31 171h689l-75 -431h-188l45 260h-502z" />
<glyph unicode="&#xad;" horiz-adv-x="732" d="M102 506l42 236h476l-42 -236h-476z" />
<glyph unicode="&#xae;" horiz-adv-x="1568" d="M103 722q16 148 84 286t171 242.5t243.5 166.5t292.5 59q116 -1 217 -42.5t173 -113.5t121.5 -165t68.5 -201t7 -219q-16 -148 -84 -286t-170.5 -243t-243 -167t-292.5 -59q-117 2 -218 44t-173.5 113.5t-121.5 164.5t-68 201t-7 219zM223 722q-12 -91 0.5 -180 t49.5 -167t93.5 -138t138.5 -95.5t179 -37.5q127 -3 246 49t207 140.5t147.5 204t75.5 238.5q12 91 -0.5 179.5t-49.5 166t-93.5 137t-138 95t-178.5 37.5q-127 3 -246 -48.5t-207 -139t-148 -203t-76 -238.5zM441 316l133 850l259 -1q61 -2 112.5 -17.5t93 -45t63 -79 t17.5 -113.5q-3 -63 -38 -106.5t-97 -79.5q86 -62 71 -209l-6 -56q-6 -53 1 -126l-1 -18h-148q-8 49 2 146l7 55q6 66 -16.5 98.5t-86.5 36.5l-165 2l-53 -337h-148zM662 787l119 -1q33 1 62.5 7.5t58.5 20t48.5 38t25.5 57.5q13 69 -24.5 94.5t-111.5 28.5l-139 1z" />
<glyph unicode="&#xaf;" horiz-adv-x="920" d="M255 1290l27 167h614l-27 -167h-614z" />
<glyph unicode="&#xb0;" horiz-adv-x="782" d="M227 1191q2 115 87 201.5t199 84.5q106 -2 173 -82t65 -186q-4 -116 -85.5 -200.5t-195.5 -82.5q-105 2 -176 81t-67 184zM370 1193q-6 -47 22.5 -82t75.5 -35q52 0 93 39.5t47 91.5q6 48 -19.5 85t-72.5 37q-53 0 -96.5 -41.5t-49.5 -94.5z" />
<glyph unicode="&#xb1;" horiz-adv-x="950" d="M15 0l42 238h710l-42 -238h-710zM110 702l39 243h254l54 342h241l-53 -342h252l-38 -243h-252l-57 -363h-241l57 363h-256z" />
<glyph unicode="&#xb2;" horiz-adv-x="676" d="M84 667l26 149l265 248q29 31 45 49t36.5 51.5t25.5 63.5t-2.5 54t-35.5 24q-64 0 -85 -113l-194 -1q9 118 83 197.5t190 79.5q113 0 180.5 -65t61.5 -177q-2 -35 -13.5 -68.5t-24 -56.5t-40 -53t-42.5 -44t-52 -45.5t-49 -42.5l-83 -85h256l-29 -165h-519z" />
<glyph unicode="&#xb3;" horiz-adv-x="676" d="M105 904l190 -1q3 -38 17 -60t50 -22q38 0 64.5 27t32.5 66q13 81 -60 85h-82l12 138h71q40 3 65 28t32 66q6 29 -6 49.5t-41 20.5q-47 0 -75 -59l-198 -1q10 106 82 167.5t181 59.5q69 -2 125 -25t91.5 -73.5t33.5 -121.5q-5 -115 -139 -183q100 -44 95 -170 q-4 -115 -92 -178.5t-207 -61.5q-112 2 -177 70t-65 179z" />
<glyph unicode="&#xb4;" horiz-adv-x="670" d="M188 1226l239 310h326l-319 -310h-246z" />
<glyph unicode="&#xb5;" horiz-adv-x="1101" d="M-49 -416l260 1498h275l-101 -622q-1 -6 -3.5 -27.5t-3.5 -33t-2.5 -34t0 -36.5t3.5 -33.5t9 -31.5t16 -24t23.5 -17.5t33.5 -6.5q88 -1 155 86l135 780h278l-188 -1082h-248l7 51q-83 -73 -170 -73q-63 0 -121 36l-83 -430h-275z" />
<glyph unicode="&#xb6;" horiz-adv-x="875" d="M145 980q9 98 44.5 184t94 151.5t143 103.5t185.5 38l282 -1l-253 -1456h-207l98 522h-54q-74 1 -134 27.5t-99.5 70t-64.5 102t-33 123.5t-2 135z" />
<glyph unicode="&#xb7;" horiz-adv-x="576" d="M144 690q0 68 42.5 115.5t109.5 47.5q64 2 107.5 -42t43.5 -109q0 -68 -42.5 -115t-109.5 -47q-65 -2 -108 41.5t-43 108.5z" />
<glyph unicode="&#xb8;" horiz-adv-x="506" d="M-41 -464l12 168q77 12 89 90q2 18 -2.5 30.5t-11.5 19t-23 11t-25 6t-30 3.5l41 142l206 1l-18 -61q94 -28 94 -163q-2 -67 -31 -116t-78 -76t-103.5 -40t-119.5 -15z" />
<glyph unicode="&#xb9;" horiz-adv-x="675" d="M228 1170l30 168l326 116h23l-129 -786h-193l94 542z" />
<glyph unicode="&#xba;" horiz-adv-x="816" d="M190 1044l7 76q7 69 31.5 132t64 115t100.5 82t133 28q56 -1 101 -22.5t74.5 -56t48 -80.5t25 -95.5t2.5 -101.5l-7 -77q-7 -69 -31.5 -132t-64 -114t-100 -81t-132.5 -28q-69 2 -121.5 33.5t-81.5 83t-41.5 112.5t-7.5 126zM354 1042q-14 -205 95 -208q38 -1 68 19 t47.5 54t27 67t14.5 70l7 78q14 203 -93 208q-38 1 -68 -18.5t-47.5 -53.5t-27.5 -67.5t-15 -69.5z" />
<glyph unicode="&#xbb;" horiz-adv-x="903" d="M-8 124l266 413l-115 386h159l166 -388l-2 -20l-287 -391h-187zM330 124l266 413l-115 386h159l166 -388l-2 -20l-287 -391h-187z" />
<glyph unicode="&#xbc;" horiz-adv-x="1247" d="M192 1166l30 168l326 116h23l-129 -786h-193l94 542zM201 202l769 1126l129 -82l-770 -1126zM559 159l12 148l354 478l1 7l194 -3l-77 -463l64 1l-21 -168l-65 1l-31 -160h-193l28 159h-266zM762 327h91l44 201l-10 -13z" />
<glyph unicode="&#xbd;" horiz-adv-x="1326" d="M167 202l769 1126l129 -82l-770 -1126zM180 1172l30 168l326 116h23l-129 -786h-193l94 542zM613 0l26 149l265 248q29 31 45 49t36.5 51.5t25.5 63.5t-2.5 54t-35.5 24q-64 0 -85 -113l-194 -1q9 118 83 197.5t190 79.5q113 0 180.5 -65t61.5 -177q-2 -35 -13.5 -68.5 t-24 -56.5t-40 -53t-42.5 -44t-52 -45.5t-49 -42.5l-83 -85h256l-29 -165h-519z" />
<glyph unicode="&#xbe;" horiz-adv-x="1410" d="M143 905l190 -1q3 -38 17 -60t50 -22q38 0 64.5 27t32.5 66q13 81 -60 85h-82l12 138h71q40 3 65 28t32 66q6 29 -6 49.5t-41 20.5q-47 0 -75 -59l-198 -1q10 106 82 167.5t181 59.5q69 -2 125 -25t91.5 -73.5t33.5 -121.5q-5 -115 -139 -183q100 -44 95 -170 q-4 -115 -92 -178.5t-207 -61.5q-112 2 -177 70t-65 179zM333 202l769 1126l129 -82l-770 -1126zM692 159l12 148l354 478l1 7l194 -3l-77 -463l64 1l-21 -168l-65 1l-31 -160h-193l28 159h-266zM895 327h91l44 201l-10 -13z" />
<glyph unicode="&#xbf;" horiz-adv-x="898" d="M-31 -1q7 79 49.5 156.5t78.5 117t116 117.5l21 21q49 49 74.5 103.5t37.5 127.5l236 2q-10 -121 -47.5 -209t-117.5 -171q-50 -52 -76 -81.5t-54.5 -81.5t-34.5 -103q-2 -30 -2.5 -62.5t17.5 -59t53 -27.5q32 -1 57.5 15t41 44.5t24 55.5t14.5 58l276 1 q-16 -186 -131 -299.5t-300 -109.5q-169 4 -258 109t-75 276zM380 942q0 67 42.5 114t108.5 47q64 2 107 -41.5t43 -108.5q0 -67 -42.5 -113.5t-107.5 -46.5q-64 -2 -107.5 41.5t-43.5 107.5z" />
<glyph unicode="&#xc0;" horiz-adv-x="1196" d="M-88 0l694 1456h263l191 -1456h-297l-25 298h-387l-127 -298h-312zM455 1846h293l144 -310h-217zM456 543h262l-41 516z" />
<glyph unicode="&#xc1;" horiz-adv-x="1196" d="M-88 0l694 1456h263l191 -1456h-297l-25 298h-387l-127 -298h-312zM456 543h262l-41 516zM616 1536l239 310h326l-319 -310h-246z" />
<glyph unicode="&#xc2;" horiz-adv-x="1196" d="M-88 0l694 1456h263l191 -1456h-297l-25 298h-387l-127 -298h-312zM433 1552v20l289 274l155 1l224 -278v-18l-210 3l-95 143l-147 -142zM456 543h262l-41 516z" />
<glyph unicode="&#xc3;" horiz-adv-x="1196" d="M-88 0l694 1456h263l191 -1456h-297l-25 298h-387l-127 -298h-312zM449 1565q3 46 17 92t38.5 87.5t65 67t90.5 24.5q40 -1 109 -46.5t111 -42.5q24 1 41.5 18.5t24 33t15.5 44.5l151 -11q-3 -47 -16.5 -92t-37 -86.5t-64 -66.5t-91.5 -24q-42 0 -110 46t-108 43 q-57 -3 -79 -96zM456 543h262l-41 516z" />
<glyph unicode="&#xc4;" horiz-adv-x="1196" d="M-88 0l694 1456h263l191 -1456h-297l-25 298h-387l-127 -298h-312zM406 1671q0 56 39.5 93.5t95.5 39.5q55 0 95.5 -35.5t40.5 -89.5q0 -56 -39 -93t-95 -39q-56 0 -96.5 34.5t-40.5 89.5zM456 543h262l-41 516zM881 1671q0 56 39 93t95 39q55 0 95.5 -35.5t40.5 -88.5 q0 -56 -39 -93t-95 -39q-56 0 -96 34.5t-40 89.5z" />
<glyph unicode="&#xc5;" horiz-adv-x="1196" d="M-88 0l694 1456h263l191 -1456h-297l-25 298h-387l-127 -298h-312zM456 543h262l-41 516zM576 1723q0 90 67.5 151.5t158.5 61.5q85 0 146 -57t61 -142q0 -90 -67.5 -149.5t-158.5 -59.5q-84 0 -145.5 55.5t-61.5 139.5zM689 1724q-5 -42 17.5 -71.5t64.5 -29.5 q47 0 83 33.5t42 79.5q6 42 -17 72.5t-65 30.5q-46 0 -82.5 -34t-42.5 -81z" />
<glyph unicode="&#xc6;" horiz-adv-x="1634" d="M-96 0l876 1456h873l-42 -238h-470l-49 -352h393l-42 -238h-384l-55 -390h489l-42 -238h-756l47 333h-317l-186 -333h-335zM563 582h214l69 505z" />
<glyph unicode="&#xc7;" horiz-adv-x="1143" d="M82 452q-4 75 8 151l38 248q15 100 44.5 190t79 171.5t114.5 140t156 92t197 31.5q91 -1 163 -28.5t120 -73.5t79.5 -111.5t45 -140t13.5 -162.5l-289 1q6 51 2.5 99t-15.5 86t-47.5 61.5t-94.5 25.5q-61 2 -108.5 -21.5t-76 -59.5t-49.5 -91t-30.5 -102t-16.5 -106 l-36 -251q-1 -9 -4 -29q-19 -156 -4 -226q25 -120 145 -125q62 -3 106.5 15.5t71.5 57.5t42 83t25 106l281 2q-17 -152 -86 -267t-188 -179t-274 -60q-85 2 -154.5 28t-115.5 69.5t-79 103t-46 128t-17 143.5zM319 -465l12 168q77 12 89 90q2 18 -2.5 30.5t-11.5 19t-23 11 t-25 6t-30 3.5l41 142l206 1l-18 -61q94 -28 94 -163q-2 -67 -31 -116t-78 -76t-103.5 -40t-119.5 -15z" />
<glyph unicode="&#xc8;" horiz-adv-x="985" d="M9 0l252 1456h811l-43 -245h-523l-60 -344h445l-42 -237h-444l-67 -386h526l-43 -244h-812zM400 1849h293l144 -310h-217z" />
<glyph unicode="&#xc9;" horiz-adv-x="985" d="M9 0l252 1456h811l-43 -245h-523l-60 -344h445l-42 -237h-444l-67 -386h526l-43 -244h-812zM561 1539l239 310h326l-319 -310h-246z" />
<glyph unicode="&#xca;" horiz-adv-x="985" d="M9 0l252 1456h811l-43 -245h-523l-60 -344h445l-42 -237h-444l-67 -386h526l-43 -244h-812zM378 1555v20l289 274l155 1l224 -278v-18l-210 3l-95 143l-147 -142z" />
<glyph unicode="&#xcb;" horiz-adv-x="985" d="M9 0l252 1456h811l-43 -245h-523l-60 -344h445l-42 -237h-444l-67 -386h526l-43 -244h-812zM351 1674q0 56 39.5 93.5t95.5 39.5q55 0 95.5 -35.5t40.5 -89.5q0 -56 -39 -93t-95 -39q-56 0 -96.5 34.5t-40.5 89.5zM826 1674q0 56 39 93t95 39q55 0 95.5 -35.5t40.5 -88.5 q0 -56 -39 -93t-95 -39q-56 0 -96 34.5t-40 89.5z" />
<glyph unicode="&#xcc;" horiz-adv-x="547" d="M21 0l253 1456h287l-253 -1456h-287zM128 1849h293l144 -310h-217z" />
<glyph unicode="&#xcd;" horiz-adv-x="547" d="M21 0l253 1456h287l-253 -1456h-287zM288 1539l239 310h326l-319 -310h-246z" />
<glyph unicode="&#xce;" horiz-adv-x="547" d="M21 0l253 1456h287l-253 -1456h-287zM106 1555v20l289 274l155 1l224 -278v-18l-210 3l-95 143l-147 -142z" />
<glyph unicode="&#xcf;" horiz-adv-x="547" d="M21 0l253 1456h287l-253 -1456h-287zM79 1674q0 56 39.5 93.5t95.5 39.5q55 0 95.5 -35.5t40.5 -89.5q0 -56 -39 -93t-95 -39q-56 0 -96.5 34.5t-40.5 89.5zM554 1674q0 56 39 93t95 39q55 0 95.5 -35.5t40.5 -88.5q0 -56 -39 -93t-95 -39q-56 0 -96 34.5t-40 89.5z" />
<glyph unicode="&#xd0;" horiz-adv-x="1162" d="M28 641l33 183h120l110 632l359 -1q85 -2 157 -26t123.5 -66t90.5 -98.5t58.5 -124.5t26.5 -144t-5 -156l-34 -226q-20 -132 -71 -243t-130 -195t-192 -130.5t-249 -45.5h-386l111 641h-122zM368 244l71 -2q85 0 147.5 27.5t101 80.5t60 116t33.5 148l33 229 q5 45 7.5 73.5t3 70.5t-4.5 69t-17.5 58.5t-33 49.5t-54 31t-77.5 15l-102 1l-67 -387h182l-32 -183h-182z" />
<glyph unicode="&#xd1;" horiz-adv-x="1226" d="M9 0l252 1456h281l255 -966l168 966h286l-253 -1456h-280l-254 965l-168 -965h-287zM465 1565q3 46 17 92t38.5 87.5t65 67t90.5 24.5q40 -1 109 -46.5t111 -42.5q24 1 41.5 18.5t24 33t15.5 44.5l151 -11q-3 -47 -16.5 -92t-37 -86.5t-64 -66.5t-91.5 -24q-42 0 -110 46 t-108 43q-57 -3 -79 -96z" />
<glyph unicode="&#xd2;" horiz-adv-x="1209" d="M84.5 445q-5.5 75 6.5 152l37 242q15 102 45.5 193.5t81.5 174.5t117.5 143t159 94t200.5 32q86 -2 156 -29t117 -72t81.5 -106t49 -131t19 -146.5t-7.5 -152.5l-36 -241q-15 -101 -45.5 -190.5t-81.5 -170t-117.5 -137.5t-157.5 -89.5t-197 -30.5q-85 2 -154.5 27 t-117.5 68t-83.5 101t-51 126t-21 143zM370 441.5q0 -47.5 9.5 -81t26.5 -66t50 -50.5t79 -20q59 -2 106.5 21t77.5 58.5t52.5 89t33.5 100.5t19 104l35 246q5 40 7 64.5t4 69t-1.5 74t-14 66t-28 58.5t-47 38t-69.5 18q-61 2 -110 -22.5t-79 -62t-53 -93.5t-34.5 -104.5 t-19.5 -107.5l-35 -245q-5 -44 -7 -75.5t-2 -79zM459 1846h293l144 -310h-217z" />
<glyph unicode="&#xd3;" horiz-adv-x="1209" d="M84.5 445q-5.5 75 6.5 152l37 242q15 102 45.5 193.5t81.5 174.5t117.5 143t159 94t200.5 32q86 -2 156 -29t117 -72t81.5 -106t49 -131t19 -146.5t-7.5 -152.5l-36 -241q-15 -101 -45.5 -190.5t-81.5 -170t-117.5 -137.5t-157.5 -89.5t-197 -30.5q-85 2 -154.5 27 t-117.5 68t-83.5 101t-51 126t-21 143zM370 441.5q0 -47.5 9.5 -81t26.5 -66t50 -50.5t79 -20q59 -2 106.5 21t77.5 58.5t52.5 89t33.5 100.5t19 104l35 246q5 40 7 64.5t4 69t-1.5 74t-14 66t-28 58.5t-47 38t-69.5 18q-61 2 -110 -22.5t-79 -62t-53 -93.5t-34.5 -104.5 t-19.5 -107.5l-35 -245q-5 -44 -7 -75.5t-2 -79zM620 1536l239 310h326l-319 -310h-246z" />
<glyph unicode="&#xd4;" horiz-adv-x="1209" d="M84.5 445q-5.5 75 6.5 152l37 242q15 102 45.5 193.5t81.5 174.5t117.5 143t159 94t200.5 32q86 -2 156 -29t117 -72t81.5 -106t49 -131t19 -146.5t-7.5 -152.5l-36 -241q-15 -101 -45.5 -190.5t-81.5 -170t-117.5 -137.5t-157.5 -89.5t-197 -30.5q-85 2 -154.5 27 t-117.5 68t-83.5 101t-51 126t-21 143zM370 441.5q0 -47.5 9.5 -81t26.5 -66t50 -50.5t79 -20q59 -2 106.5 21t77.5 58.5t52.5 89t33.5 100.5t19 104l35 246q5 40 7 64.5t4 69t-1.5 74t-14 66t-28 58.5t-47 38t-69.5 18q-61 2 -110 -22.5t-79 -62t-53 -93.5t-34.5 -104.5 t-19.5 -107.5l-35 -245q-5 -44 -7 -75.5t-2 -79zM437 1552v20l289 274l155 1l224 -278v-18l-210 3l-95 143l-147 -142z" />
<glyph unicode="&#xd5;" horiz-adv-x="1209" d="M84.5 445q-5.5 75 6.5 152l37 242q15 102 45.5 193.5t81.5 174.5t117.5 143t159 94t200.5 32q86 -2 156 -29t117 -72t81.5 -106t49 -131t19 -146.5t-7.5 -152.5l-36 -241q-15 -101 -45.5 -190.5t-81.5 -170t-117.5 -137.5t-157.5 -89.5t-197 -30.5q-85 2 -154.5 27 t-117.5 68t-83.5 101t-51 126t-21 143zM370 441.5q0 -47.5 9.5 -81t26.5 -66t50 -50.5t79 -20q59 -2 106.5 21t77.5 58.5t52.5 89t33.5 100.5t19 104l35 246q5 40 7 64.5t4 69t-1.5 74t-14 66t-28 58.5t-47 38t-69.5 18q-61 2 -110 -22.5t-79 -62t-53 -93.5t-34.5 -104.5 t-19.5 -107.5l-35 -245q-5 -44 -7 -75.5t-2 -79zM453 1565q3 46 17 92t38.5 87.5t65 67t90.5 24.5q40 -1 109 -46.5t111 -42.5q24 1 41.5 18.5t24 33t15.5 44.5l151 -11q-3 -47 -16.5 -92t-37 -86.5t-64 -66.5t-91.5 -24q-42 0 -110 46t-108 43q-57 -3 -79 -96z" />
<glyph unicode="&#xd6;" horiz-adv-x="1209" d="M84.5 445q-5.5 75 6.5 152l37 242q15 102 45.5 193.5t81.5 174.5t117.5 143t159 94t200.5 32q86 -2 156 -29t117 -72t81.5 -106t49 -131t19 -146.5t-7.5 -152.5l-36 -241q-15 -101 -45.5 -190.5t-81.5 -170t-117.5 -137.5t-157.5 -89.5t-197 -30.5q-85 2 -154.5 27 t-117.5 68t-83.5 101t-51 126t-21 143zM370 441.5q0 -47.5 9.5 -81t26.5 -66t50 -50.5t79 -20q59 -2 106.5 21t77.5 58.5t52.5 89t33.5 100.5t19 104l35 246q5 40 7 64.5t4 69t-1.5 74t-14 66t-28 58.5t-47 38t-69.5 18q-61 2 -110 -22.5t-79 -62t-53 -93.5t-34.5 -104.5 t-19.5 -107.5l-35 -245q-5 -44 -7 -75.5t-2 -79zM410 1671q0 56 39.5 93.5t95.5 39.5q55 0 95.5 -35.5t40.5 -89.5q0 -56 -39 -93t-95 -39q-56 0 -96.5 34.5t-40.5 89.5zM885 1671q0 56 39 93t95 39q55 0 95.5 -35.5t40.5 -88.5q0 -56 -39 -93t-95 -39q-56 0 -96 34.5 t-40 89.5z" />
<glyph unicode="&#xd7;" horiz-adv-x="941" d="M27 385l303 310l-197 315l179 159l187 -299l291 298l140 -182l-307 -315l194 -308l-179 -160l-184 294l-285 -292z" />
<glyph unicode="&#xd8;" horiz-adv-x="1206" d="M7 -95l166 256q-109 170 -74 436l37 242q15 102 45.5 193.5t81.5 174.5t117.5 143t159 94t200.5 32q141 -4 241 -74l75 116h188l-155 -238q100 -177 66 -441l-36 -241q-15 -101 -45.5 -190.5t-81.5 -170t-117.5 -137.5t-157.5 -89.5t-197 -30.5q-138 4 -234 65l-91 -140 h-188zM377 474l456 701q-39 52 -115 56q-61 2 -110 -22.5t-79 -62t-53 -93.5t-34.5 -104.5t-19.5 -107.5l-35 -245q-9 -62 -10 -122zM432 270q39 -42 111 -46q59 -2 106.5 21t77.5 58.5t52.5 89t33.5 100.5t19 104l35 246q7 54 11 112z" />
<glyph unicode="&#xd9;" horiz-adv-x="1145" d="M80 456l170 1000h288l-168 -1001q-7 -46 -4.5 -87t14 -72.5t43 -50.5t82.5 -21q105 -4 155 57t66 174l169 1001h287l-170 -1000q-31 -226 -168 -353.5t-363 -123.5q-213 4 -319 133t-82 344zM420 1846h293l144 -310h-217z" />
<glyph unicode="&#xda;" horiz-adv-x="1145" d="M80 456l170 1000h288l-168 -1001q-7 -46 -4.5 -87t14 -72.5t43 -50.5t82.5 -21q105 -4 155 57t66 174l169 1001h287l-170 -1000q-31 -226 -168 -353.5t-363 -123.5q-213 4 -319 133t-82 344zM581 1536l239 310h326l-319 -310h-246z" />
<glyph unicode="&#xdb;" horiz-adv-x="1145" d="M80 456l170 1000h288l-168 -1001q-7 -46 -4.5 -87t14 -72.5t43 -50.5t82.5 -21q105 -4 155 57t66 174l169 1001h287l-170 -1000q-31 -226 -168 -353.5t-363 -123.5q-213 4 -319 133t-82 344zM398 1552v20l289 274l155 1l224 -278v-18l-210 3l-95 143l-147 -142z" />
<glyph unicode="&#xdc;" horiz-adv-x="1145" d="M80 456l170 1000h288l-168 -1001q-7 -46 -4.5 -87t14 -72.5t43 -50.5t82.5 -21q105 -4 155 57t66 174l169 1001h287l-170 -1000q-31 -226 -168 -353.5t-363 -123.5q-213 4 -319 133t-82 344zM371 1671q0 56 39.5 93.5t95.5 39.5q55 0 95.5 -35.5t40.5 -89.5 q0 -56 -39 -93t-95 -39q-56 0 -96.5 34.5t-40.5 89.5zM846 1671q0 56 39 93t95 39q55 0 95.5 -35.5t40.5 -88.5q0 -56 -39 -93t-95 -39q-56 0 -96 34.5t-40 89.5z" />
<glyph unicode="&#xdd;" horiz-adv-x="1088" d="M169 1456h302l99 -651l325 651h323l-548 -942l-89 -514h-291l95 543zM562 1536l239 310h326l-319 -310h-246z" />
<glyph unicode="&#xde;" horiz-adv-x="1069" d="M12 0l252 1456h277l-47 -267l141 -1q194 -6 299.5 -127t89.5 -315q-18 -211 -160 -336t-355 -125l-171 1l-50 -286h-276zM378 521l143 -2q95 2 155.5 65t72.5 160q11 84 -18 143.5t-108 65.5l-156 3l-4 5z" />
<glyph unicode="&#xdf;" horiz-adv-x="1121" d="M20 0l188 1101q13 100 49 183.5t93.5 146.5t142 97.5t187.5 31.5q156 -4 242 -105.5t74 -258.5q-6 -61 -35.5 -124.5t-62 -128t-42.5 -120.5q-8 -42 5.5 -89t37.5 -90.5t49 -87t41.5 -94.5t13.5 -98q-12 -181 -126 -285t-297 -100q-137 2 -228 59l76 229q77 -57 164 -53 q58 2 93 42t46 102q7 44 -8 90.5t-40 87.5t-50.5 83t-41.5 91.5t-12 98.5q4 47 24 98.5t42 90t43.5 89.5t26.5 96q4 35 -1 65.5t-26 54.5t-57 26q-33 1 -59 -15t-41 -39t-26.5 -59t-16 -60.5t-8.5 -57.5l-184 -1098h-276z" />
<glyph unicode="&#xe0;" horiz-adv-x="945" d="M19 295q5 94 44.5 166t104.5 115t144 64.5t170 21.5h88l13 88q1 30 1.5 59t-16.5 51t-52 22q-52 2 -80 -33.5t-38 -90.5l-275 -2q5 81 41 147.5t93.5 110t131 67t152.5 22.5q161 -4 246.5 -101t69.5 -258l-77 -481q-9 -52 -12.5 -83t-2.5 -78.5t14 -83.5l-1 -18h-271 q-8 32 -8 84q-92 -105 -210 -105q-128 2 -202 94.5t-68 221.5zM270 1536h293l144 -310h-217zM302 313q-11 -109 63 -113q72 -1 136 64l49 229h-60q-77 -4 -127.5 -52.5t-60.5 -127.5z" />
<glyph unicode="&#xe1;" horiz-adv-x="945" d="M19 295q5 94 44.5 166t104.5 115t144 64.5t170 21.5h88l13 88q1 30 1.5 59t-16.5 51t-52 22q-52 2 -80 -33.5t-38 -90.5l-275 -2q5 81 41 147.5t93.5 110t131 67t152.5 22.5q161 -4 246.5 -101t69.5 -258l-77 -481q-9 -52 -12.5 -83t-2.5 -78.5t14 -83.5l-1 -18h-271 q-8 32 -8 84q-92 -105 -210 -105q-128 2 -202 94.5t-68 221.5zM302 313q-11 -109 63 -113q72 -1 136 64l49 229h-60q-77 -4 -127.5 -52.5t-60.5 -127.5zM431 1226l239 310h326l-319 -310h-246z" />
<glyph unicode="&#xe2;" horiz-adv-x="945" d="M19 295q5 94 44.5 166t104.5 115t144 64.5t170 21.5h88l13 88q1 30 1.5 59t-16.5 51t-52 22q-52 2 -80 -33.5t-38 -90.5l-275 -2q5 81 41 147.5t93.5 110t131 67t152.5 22.5q161 -4 246.5 -101t69.5 -258l-77 -481q-9 -52 -12.5 -83t-2.5 -78.5t14 -83.5l-1 -18h-271 q-8 32 -8 84q-92 -105 -210 -105q-128 2 -202 94.5t-68 221.5zM248 1242v20l289 274l155 1l224 -278v-18l-210 3l-95 143l-147 -142zM302 313q-11 -109 63 -113q72 -1 136 64l49 229h-60q-77 -4 -127.5 -52.5t-60.5 -127.5z" />
<glyph unicode="&#xe3;" horiz-adv-x="945" d="M19 295q5 94 44.5 166t104.5 115t144 64.5t170 21.5h88l13 88q1 30 1.5 59t-16.5 51t-52 22q-52 2 -80 -33.5t-38 -90.5l-275 -2q5 81 41 147.5t93.5 110t131 67t152.5 22.5q161 -4 246.5 -101t69.5 -258l-77 -481q-9 -52 -12.5 -83t-2.5 -78.5t14 -83.5l-1 -18h-271 q-8 32 -8 84q-92 -105 -210 -105q-128 2 -202 94.5t-68 221.5zM264 1256q3 46 17 92t38.5 87.5t65 67t90.5 24.5q40 -1 109 -46.5t111 -42.5q24 1 41.5 18.5t24 33t15.5 44.5l151 -11q-3 -47 -16.5 -92t-37 -86.5t-64 -66.5t-91.5 -24q-42 0 -110 46t-108 43q-57 -3 -79 -96 zM302 313q-11 -109 63 -113q72 -1 136 64l49 229h-60q-77 -4 -127.5 -52.5t-60.5 -127.5z" />
<glyph unicode="&#xe4;" horiz-adv-x="945" d="M19 295q5 94 44.5 166t104.5 115t144 64.5t170 21.5h88l13 88q1 30 1.5 59t-16.5 51t-52 22q-52 2 -80 -33.5t-38 -90.5l-275 -2q5 81 41 147.5t93.5 110t131 67t152.5 22.5q161 -4 246.5 -101t69.5 -258l-77 -481q-9 -52 -12.5 -83t-2.5 -78.5t14 -83.5l-1 -18h-271 q-8 32 -8 84q-92 -105 -210 -105q-128 2 -202 94.5t-68 221.5zM221 1361q0 56 39.5 93.5t95.5 39.5q55 0 95.5 -35.5t40.5 -89.5q0 -56 -39 -93t-95 -39q-56 0 -96.5 34.5t-40.5 89.5zM302 313q-11 -109 63 -113q72 -1 136 64l49 229h-60q-77 -4 -127.5 -52.5t-60.5 -127.5z M696 1361q0 56 39 93t95 39q55 0 95.5 -35.5t40.5 -88.5q0 -56 -39 -93t-95 -39q-56 0 -96 34.5t-40 89.5z" />
<glyph unicode="&#xe5;" horiz-adv-x="945" d="M19 295q5 94 44.5 166t104.5 115t144 64.5t170 21.5h88l13 88q1 30 1.5 59t-16.5 51t-52 22q-52 2 -80 -33.5t-38 -90.5l-275 -2q5 81 41 147.5t93.5 110t131 67t152.5 22.5q161 -4 246.5 -101t69.5 -258l-77 -481q-9 -52 -12.5 -83t-2.5 -78.5t14 -83.5l-1 -18h-271 q-8 32 -8 84q-92 -105 -210 -105q-128 2 -202 94.5t-68 221.5zM302 313q-11 -109 63 -113q72 -1 136 64l49 229h-60q-77 -4 -127.5 -52.5t-60.5 -127.5zM391 1413q0 90 67.5 151.5t158.5 61.5q85 0 146 -57t61 -142q0 -90 -67.5 -149.5t-158.5 -59.5q-84 0 -145.5 55.5 t-61.5 139.5zM504 1414q-5 -42 17.5 -71.5t64.5 -29.5q47 0 83 33.5t42 79.5q6 42 -17 72.5t-65 30.5q-46 0 -82.5 -34t-42.5 -81z" />
<glyph unicode="&#xe6;" horiz-adv-x="1456" d="M19 311q5 73 32.5 131.5t71 97t101.5 64t121 36.5t133 11l119 -1l11 57q21 158 -71 161q-52 2 -85.5 -33t-46.5 -90l-273 18q6 82 44 148.5t97.5 108t133.5 63t155 20.5q161 -2 249 -94q126 96 269 92q76 -2 136 -32t95 -78.5t57.5 -111t24.5 -130.5t-4 -137l-25 -163 h-518q-6 -40 -1 -81t18 -74t45 -54.5t79 -23.5q62 -2 119 17.5t125 57.5l53 -193q-60 -60 -153 -89t-190 -29q-201 5 -293 135q-146 -139 -333 -135q-145 2 -224.5 94t-71.5 237zM298 307q-7 -51 13.5 -82.5t70.5 -32.5q65 0 152 67l38 201l-96 1q-69 -4 -118.5 -45 t-59.5 -109zM865 644l254 -1l5 31q5 30 6 58t-3.5 61t-23.5 53.5t-51 22.5q-34 1 -63 -13.5t-47.5 -36t-35 -56t-24.5 -59.5t-17 -60z" />
<glyph unicode="&#xe7;" horiz-adv-x="924" d="M47 372.5q-4 63.5 5 128.5l9 78q11 86 34.5 161.5t63.5 144t94 117t129.5 75.5t166.5 25q89 -3 155.5 -38t104.5 -94t54.5 -133t12.5 -160l-260 1q3 29 0.5 61.5t-9.5 61t-29.5 47.5t-58.5 21q-25 1 -46.5 -5t-37 -14.5t-29.5 -27.5t-22.5 -32.5t-16.5 -40.5t-11.5 -41.5 t-8 -46l-6 -42t-4.5 -40.5l-7 -79q-1 -12 -5 -43t-6 -52.5t-3 -52.5t4.5 -52.5t15 -42.5t30 -32t49.5 -12q66 -2 97.5 43t43.5 118l259 1q-16 -174 -129.5 -287t-286.5 -109q-73 2 -132 23.5t-98 57.5t-67 85t-39.5 106.5t-15.5 121zM212 -465l12 168q77 12 89 90 q2 18 -2.5 30.5t-11.5 19t-23 11t-25 6t-30 3.5l41 142l206 1l-18 -61q94 -28 94 -163q-2 -67 -31 -116t-78 -76t-103.5 -40t-119.5 -15z" />
<glyph unicode="&#xe8;" horiz-adv-x="961" d="M57 479l11 89q11 86 34.5 163t64.5 147t95.5 119.5t131.5 78t168 26.5q86 -2 151.5 -33.5t101.5 -83t58.5 -119t22.5 -141.5t-7 -150l-19 -129h-540q-26 -226 138 -230q126 -4 242 95l93 -172q-60 -80 -160 -120.5t-207 -38.5q-106 1 -185.5 41.5t-124.5 109.5t-62.5 158 t-6.5 190zM265 1536h293l144 -310h-217zM349 644l275 -1l5 29q30 191 -94 197q-36 1 -65.5 -13t-47.5 -34t-33.5 -55t-23 -59.5t-16.5 -63.5z" />
<glyph unicode="&#xe9;" horiz-adv-x="961" d="M57 479l11 89q11 86 34.5 163t64.5 147t95.5 119.5t131.5 78t168 26.5q86 -2 151.5 -33.5t101.5 -83t58.5 -119t22.5 -141.5t-7 -150l-19 -129h-540q-26 -226 138 -230q126 -4 242 95l93 -172q-60 -80 -160 -120.5t-207 -38.5q-106 1 -185.5 41.5t-124.5 109.5t-62.5 158 t-6.5 190zM349 644l275 -1l5 29q30 191 -94 197q-36 1 -65.5 -13t-47.5 -34t-33.5 -55t-23 -59.5t-16.5 -63.5zM426 1226l239 310h326l-319 -310h-246z" />
<glyph unicode="&#xea;" horiz-adv-x="961" d="M57 479l11 89q11 86 34.5 163t64.5 147t95.5 119.5t131.5 78t168 26.5q86 -2 151.5 -33.5t101.5 -83t58.5 -119t22.5 -141.5t-7 -150l-19 -129h-540q-26 -226 138 -230q126 -4 242 95l93 -172q-60 -80 -160 -120.5t-207 -38.5q-106 1 -185.5 41.5t-124.5 109.5t-62.5 158 t-6.5 190zM243 1242v20l289 274l155 1l224 -278v-18l-210 3l-95 143l-147 -142zM349 644l275 -1l5 29q30 191 -94 197q-36 1 -65.5 -13t-47.5 -34t-33.5 -55t-23 -59.5t-16.5 -63.5z" />
<glyph unicode="&#xeb;" horiz-adv-x="961" d="M57 479l11 89q11 86 34.5 163t64.5 147t95.5 119.5t131.5 78t168 26.5q86 -2 151.5 -33.5t101.5 -83t58.5 -119t22.5 -141.5t-7 -150l-19 -129h-540q-26 -226 138 -230q126 -4 242 95l93 -172q-60 -80 -160 -120.5t-207 -38.5q-106 1 -185.5 41.5t-124.5 109.5t-62.5 158 t-6.5 190zM216 1361q0 56 39.5 93.5t95.5 39.5q55 0 95.5 -35.5t40.5 -89.5q0 -56 -39 -93t-95 -39q-56 0 -96.5 34.5t-40.5 89.5zM349 644l275 -1l5 29q30 191 -94 197q-36 1 -65.5 -13t-47.5 -34t-33.5 -55t-23 -59.5t-16.5 -63.5zM691 1361q0 56 39 93t95 39 q55 0 95.5 -35.5t40.5 -88.5q0 -56 -39 -93t-95 -39q-56 0 -96 34.5t-40 89.5z" />
<glyph unicode="&#xec;" horiz-adv-x="531" d="M16 0l187 1082h277l-188 -1082h-276zM64 1521h293l144 -310h-217z" />
<glyph unicode="&#xed;" horiz-adv-x="531" d="M16 0l187 1082h277l-188 -1082h-276zM224 1211l239 310h326l-319 -310h-246z" />
<glyph unicode="&#xee;" horiz-adv-x="531" d="M16 0l187 1082h277l-188 -1082h-276zM42 1227v20l289 274l155 1l224 -278v-18l-210 3l-95 143l-147 -142z" />
<glyph unicode="&#xef;" horiz-adv-x="531" d="M15 1346q0 56 39.5 93.5t95.5 39.5q55 0 95.5 -35.5t40.5 -89.5q0 -56 -39 -93t-95 -39q-56 0 -96.5 34.5t-40.5 89.5zM16 0l187 1082h277l-188 -1082h-276zM490 1346q0 56 39 93t95 39q55 0 95.5 -35.5t40.5 -88.5q0 -56 -39 -93t-95 -39q-56 0 -96 34.5t-40 89.5z" />
<glyph unicode="&#xf0;" horiz-adv-x="1008" d="M52 460q7 76 27 147.5t56.5 138.5t85.5 116t118.5 77.5t150.5 26.5q100 -4 178 -62q-6 131 -67 242l-168 -116l-56 127l137 88q-62 61 -188 111l110 223q188 -57 306 -175l162 107l53 -129l-124 -77q148 -301 104 -652l-9 -74q-11 -85 -37 -168t-71 -163t-103 -140 t-139.5 -95.5t-173.5 -33.5q-94 3 -167 45.5t-115 110.5t-60 152t-10 173zM326 388.5q3 -41.5 10.5 -80t33 -66t64.5 -29.5q32 -2 60 10.5t48 32.5t37 51t28 60t20 65.5t13.5 61.5t8.5 54l15 105l2 22q-42 70 -129 72q-52 1 -92.5 -26.5t-63.5 -73.5t-35 -92t-17 -95 q-6 -30 -3 -71.5z" />
<glyph unicode="&#xf1;" horiz-adv-x="988" d="M-12 0l188 1082l258 1l-20 -109q114 133 253 129q64 -1 111 -28t70.5 -69.5t37.5 -97t12.5 -110.5t-5.5 -110l-115 -688h-277l114 690q3 30 4 48t-1.5 45.5t-10.5 43t-27 27.5t-48 12q-39 0 -68.5 -20.5t-60.5 -58.5l-137 -787h-278zM288 1256q3 46 17 92t38.5 87.5 t65 67t90.5 24.5q40 -1 109 -46.5t111 -42.5q24 1 41.5 18.5t24 33t15.5 44.5l151 -11q-3 -47 -16.5 -92t-37 -86.5t-64 -66.5t-91.5 -24q-42 0 -110 46t-108 43q-57 -3 -79 -96z" />
<glyph unicode="&#xf2;" horiz-adv-x="998" d="M53 505l8 70q12 106 49 199.5t96.5 169t150.5 118.5t202 40q72 -2 130.5 -24t98 -59t68.5 -87t42 -107.5t18 -121t-4 -127.5l-8 -71q-12 -106 -49 -199.5t-96.5 -168.5t-150.5 -117.5t-201 -39.5q-106 3 -182.5 48.5t-115.5 121t-53 165t-3 190.5zM293 1536h293l144 -310 h-217zM332 503q-13 -135 1 -195q22 -90 98 -95q43 -2 77 17.5t54 48.5t35 73t21 78t11 75l7 72q13 138 -3 199q-23 88 -99 93q-51 3 -89 -26t-59 -79t-31.5 -94.5t-15.5 -93.5z" />
<glyph unicode="&#xf3;" horiz-adv-x="998" d="M53 505l8 70q12 106 49 199.5t96.5 169t150.5 118.5t202 40q72 -2 130.5 -24t98 -59t68.5 -87t42 -107.5t18 -121t-4 -127.5l-8 -71q-12 -106 -49 -199.5t-96.5 -168.5t-150.5 -117.5t-201 -39.5q-106 3 -182.5 48.5t-115.5 121t-53 165t-3 190.5zM332 503 q-13 -135 1 -195q22 -90 98 -95q43 -2 77 17.5t54 48.5t35 73t21 78t11 75l7 72q13 138 -3 199q-23 88 -99 93q-51 3 -89 -26t-59 -79t-31.5 -94.5t-15.5 -93.5zM454 1226l239 310h326l-319 -310h-246z" />
<glyph unicode="&#xf4;" horiz-adv-x="998" d="M53 505l8 70q12 106 49 199.5t96.5 169t150.5 118.5t202 40q72 -2 130.5 -24t98 -59t68.5 -87t42 -107.5t18 -121t-4 -127.5l-8 -71q-12 -106 -49 -199.5t-96.5 -168.5t-150.5 -117.5t-201 -39.5q-106 3 -182.5 48.5t-115.5 121t-53 165t-3 190.5zM271 1242v20l289 274 l155 1l224 -278v-18l-210 3l-95 143l-147 -142zM332 503q-13 -135 1 -195q22 -90 98 -95q43 -2 77 17.5t54 48.5t35 73t21 78t11 75l7 72q13 138 -3 199q-23 88 -99 93q-51 3 -89 -26t-59 -79t-31.5 -94.5t-15.5 -93.5z" />
<glyph unicode="&#xf5;" horiz-adv-x="998" d="M53 505l8 70q12 106 49 199.5t96.5 169t150.5 118.5t202 40q72 -2 130.5 -24t98 -59t68.5 -87t42 -107.5t18 -121t-4 -127.5l-8 -71q-12 -106 -49 -199.5t-96.5 -168.5t-150.5 -117.5t-201 -39.5q-106 3 -182.5 48.5t-115.5 121t-53 165t-3 190.5zM287 1256q3 46 17 92 t38.5 87.5t65 67t90.5 24.5q40 -1 109 -46.5t111 -42.5q24 1 41.5 18.5t24 33t15.5 44.5l151 -11q-3 -47 -16.5 -92t-37 -86.5t-64 -66.5t-91.5 -24q-42 0 -110 46t-108 43q-57 -3 -79 -96zM332 503q-13 -135 1 -195q22 -90 98 -95q43 -2 77 17.5t54 48.5t35 73t21 78t11 75 l7 72q13 138 -3 199q-23 88 -99 93q-51 3 -89 -26t-59 -79t-31.5 -94.5t-15.5 -93.5z" />
<glyph unicode="&#xf6;" horiz-adv-x="998" d="M53 505l8 70q12 106 49 199.5t96.5 169t150.5 118.5t202 40q72 -2 130.5 -24t98 -59t68.5 -87t42 -107.5t18 -121t-4 -127.5l-8 -71q-12 -106 -49 -199.5t-96.5 -168.5t-150.5 -117.5t-201 -39.5q-106 3 -182.5 48.5t-115.5 121t-53 165t-3 190.5zM244 1361 q0 56 39.5 93.5t95.5 39.5q55 0 95.5 -35.5t40.5 -89.5q0 -56 -39 -93t-95 -39q-56 0 -96.5 34.5t-40.5 89.5zM332 503q-13 -135 1 -195q22 -90 98 -95q43 -2 77 17.5t54 48.5t35 73t21 78t11 75l7 72q13 138 -3 199q-23 88 -99 93q-51 3 -89 -26t-59 -79t-31.5 -94.5 t-15.5 -93.5zM719 1361q0 56 39 93t95 39q55 0 95.5 -35.5t40.5 -88.5q0 -56 -39 -93t-95 -39q-56 0 -96 34.5t-40 89.5z" />
<glyph unicode="&#xf7;" horiz-adv-x="1002" d="M63 570l41 232h845l-41 -232h-845zM283 272q0 67 42.5 112t108.5 47q65 2 108.5 -40.5t43.5 -107.5q0 -67 -42.5 -112.5t-109.5 -45.5q-64 -2 -107.5 40t-43.5 107zM423 1084q0 67 43 112.5t109 45.5q64 2 108 -40t44 -107q0 -67 -43 -112.5t-109 -45.5q-65 -2 -108.5 40 t-43.5 107z" />
<glyph unicode="&#xf8;" horiz-adv-x="996" d="M17 -142l133 233q-63 73 -86.5 181.5t-10.5 232.5l8 70q12 106 49 199.5t96.5 169t150.5 118.5t202 40q84 -3 150 -32l84 146h160l-132 -232q60 -73 82 -181t9 -227l-8 -71q-12 -106 -49 -199.5t-96.5 -168.5t-150.5 -117.5t-201 -39.5q-80 3 -144 29l-86 -151h-160z M325 397l260 456q-22 14 -51 16q-51 3 -89 -26t-59 -79t-31.5 -94.5t-15.5 -93.5l-7 -73q-7 -63 -7 -106zM387 226q20 -12 44 -13q43 -2 77 17.5t54 48.5t35 73t21 78t11 75l7 72q6 47 7 96z" />
<glyph unicode="&#xf9;" horiz-adv-x="988" d="M55.5 271.5q-0.5 55.5 3.5 110.5l117 700h276l-117 -704q-1 -32 -3 -67t15 -64.5t55 -30.5q81 -4 150 83l136 783h279l-188 -1082h-257l18 99q-102 -121 -238 -120q-64 1 -112 26t-74.5 65.5t-43 93t-17 108zM290 1536h293l144 -310h-217z" />
<glyph unicode="&#xfa;" horiz-adv-x="988" d="M55.5 271.5q-0.5 55.5 3.5 110.5l117 700h276l-117 -704q-1 -32 -3 -67t15 -64.5t55 -30.5q81 -4 150 83l136 783h279l-188 -1082h-257l18 99q-102 -121 -238 -120q-64 1 -112 26t-74.5 65.5t-43 93t-17 108zM451 1226l239 310h326l-319 -310h-246z" />
<glyph unicode="&#xfb;" horiz-adv-x="988" d="M55.5 271.5q-0.5 55.5 3.5 110.5l117 700h276l-117 -704q-1 -32 -3 -67t15 -64.5t55 -30.5q81 -4 150 83l136 783h279l-188 -1082h-257l18 99q-102 -121 -238 -120q-64 1 -112 26t-74.5 65.5t-43 93t-17 108zM268 1242v20l289 274l155 1l224 -278v-18l-210 3l-95 143 l-147 -142z" />
<glyph unicode="&#xfc;" horiz-adv-x="988" d="M55.5 271.5q-0.5 55.5 3.5 110.5l117 700h276l-117 -704q-1 -32 -3 -67t15 -64.5t55 -30.5q81 -4 150 83l136 783h279l-188 -1082h-257l18 99q-102 -121 -238 -120q-64 1 -112 26t-74.5 65.5t-43 93t-17 108zM241 1361q0 56 39.5 93.5t95.5 39.5q55 0 95.5 -35.5 t40.5 -89.5q0 -56 -39 -93t-95 -39q-56 0 -96.5 34.5t-40.5 89.5zM716 1361q0 56 39 93t95 39q55 0 95.5 -35.5t40.5 -88.5q0 -56 -39 -93t-95 -39q-56 0 -96 34.5t-40 89.5z" />
<glyph unicode="&#xfd;" horiz-adv-x="897" d="M-51 -419l24 221q22 -2 30 -2q65 -1 105 27t68 89l39 88l-112 1078h289l19 -606l245 606h302l-558 -1245q-25 -59 -53.5 -105.5t-68 -87t-92 -62.5t-115.5 -22q-46 0 -122 21zM411 1226l239 310h326l-319 -310h-246z" />
<glyph unicode="&#xfe;" horiz-adv-x="1002" d="M-75 -416l72 416h-1l266 1536h278l-91 -522q86 90 198 89q317 -4 268 -525l-8 -70q-9 -77 -25.5 -146.5t-49 -143t-76 -125.5t-111 -84t-150.5 -29q-127 5 -198 109l-96 -505h-276zM322 282q31 -63 112 -68q33 -2 60 8t45.5 26.5t34 42.5t24.5 51t16 58.5t10.5 57 t6.5 54.5l7 72q1 6 3.5 31.5t3.5 38.5t2.5 39.5t-0.5 42.5t-5 38.5t-10.5 36t-18.5 27.5t-27.5 20.5t-38.5 7.5q-74 1 -135 -73l-84 -476z" />
<glyph unicode="&#xff;" horiz-adv-x="897" d="M-51 -419l24 221q22 -2 30 -2q65 -1 105 27t68 89l39 88l-112 1078h289l19 -606l245 606h302l-558 -1245q-25 -59 -53.5 -105.5t-68 -87t-92 -62.5t-115.5 -22q-46 0 -122 21zM202 1361q0 56 39.5 93.5t95.5 39.5q55 0 95.5 -35.5t40.5 -89.5q0 -56 -39 -93t-95 -39 q-56 0 -96.5 34.5t-40.5 89.5zM677 1361q0 56 39 93t95 39q55 0 95.5 -35.5t40.5 -88.5q0 -56 -39 -93t-95 -39q-56 0 -96 34.5t-40 89.5z" />
<glyph unicode="&#x152;" horiz-adv-x="1682" d="M90 432.5q-7 71.5 4 143.5l48 304q18 120 65.5 226t120 190.5t178 133.5t230.5 48q86 -1 238 -22h736l-43 -245h-523l-60 -344h445l-42 -237h-444l-67 -386h526l-43 -244h-722v-1q-125 -18 -224 -17q-79 2 -146 26.5t-114.5 66.5t-84 98.5t-54 122t-24.5 137zM370 575 q-42 -348 158 -357q68 -4 158 10l174 1003q-74 13 -139 14q-71 1 -127.5 -31t-91 -87.5t-55 -115.5t-30.5 -129z" />
<glyph unicode="&#x153;" horiz-adv-x="1542" d="M69.5 398q-4.5 64 4.5 126l3 21q13 107 48.5 203.5t95 178.5t151 129.5t203.5 46.5q177 -5 270 -125q135 128 289 124q98 -2 167.5 -45.5t103 -115.5t44.5 -154.5t1 -173.5l-26 -164h-503q-5 -36 -1 -76t14.5 -74t39.5 -57.5t73 -25.5q63 -3 120.5 16.5t128.5 58.5 l56 -190q-65 -63 -159 -93t-192 -28q-180 5 -275 125q-142 -129 -307 -125q-72 1 -130.5 24.5t-97 63.5t-66.5 93t-39.5 113t-16 124zM343 347q12 -132 102 -135q32 -2 58.5 10t45 30.5t34 48t24.5 56.5t16.5 63t11 59.5t6.5 52.5l2 21q12 126 7 178q-11 134 -102 137 q-36 2 -66 -13t-50 -44t-34.5 -60t-23.5 -73t-13.5 -69.5t-8.5 -62.5l-2 -22q-12 -125 -7 -177zM941 647l239 -1l5 29q31 192 -78 195q-20 1 -37.5 -6t-30.5 -16t-26 -28t-20.5 -30.5t-17.5 -38t-13 -36t-11.5 -37.5t-9.5 -31z" />
<glyph unicode="&#x178;" horiz-adv-x="1088" d="M169 1456h302l99 -651l325 651h323l-548 -942l-89 -514h-291l95 543zM352 1671q0 56 39.5 93.5t95.5 39.5q55 0 95.5 -35.5t40.5 -89.5q0 -56 -39 -93t-95 -39q-56 0 -96.5 34.5t-40.5 89.5zM827 1671q0 56 39 93t95 39q55 0 95.5 -35.5t40.5 -88.5q0 -56 -39 -93 t-95 -39q-56 0 -96 34.5t-40 89.5z" />
<glyph unicode="&#x2c6;" horiz-adv-x="911" d="M229 1242v20l289 274l155 1l224 -278v-18l-210 3l-95 143l-147 -142z" />
<glyph unicode="&#x2dc;" horiz-adv-x="878" d="M225 1258q3 46 17 92t38.5 87.5t65 67t90.5 24.5q40 -1 109 -46.5t111 -42.5q24 1 41.5 18.5t24 33t15.5 44.5l151 -11q-3 -47 -16.5 -92t-37 -86.5t-64 -66.5t-91.5 -24q-42 0 -110 46t-108 43q-57 -3 -79 -96z" />
<glyph unicode="&#x2000;" horiz-adv-x="968" />
<glyph unicode="&#x2001;" horiz-adv-x="1936" />
<glyph unicode="&#x2002;" horiz-adv-x="968" />
<glyph unicode="&#x2003;" horiz-adv-x="1936" />
<glyph unicode="&#x2004;" horiz-adv-x="645" />
<glyph unicode="&#x2005;" horiz-adv-x="484" />
<glyph unicode="&#x2006;" horiz-adv-x="322" />
<glyph unicode="&#x2007;" horiz-adv-x="322" />
<glyph unicode="&#x2008;" horiz-adv-x="242" />
<glyph unicode="&#x2009;" horiz-adv-x="387" />
<glyph unicode="&#x200a;" horiz-adv-x="107" />
<glyph unicode="&#x2010;" horiz-adv-x="732" d="M102 506l42 236h476l-42 -236h-476z" />
<glyph unicode="&#x2011;" horiz-adv-x="732" d="M102 506l42 236h476l-42 -236h-476z" />
<glyph unicode="&#x2012;" horiz-adv-x="732" d="M102 506l42 236h476l-42 -236h-476z" />
<glyph unicode="&#x2013;" horiz-adv-x="1097" d="M145 594l50 238h852l-50 -238h-852z" />
<glyph unicode="&#x2014;" horiz-adv-x="1321" d="M115 594l68 238h1136l-68 -238h-1136z" />
<glyph unicode="&#x2018;" horiz-adv-x="465" d="M182 1047l24 151q17 106 73.5 202.5t140.5 170.5l125 -81q-99 -168 -121 -291l-26 -152h-216z" />
<glyph unicode="&#x2019;" horiz-adv-x="456" d="M152 1090q97 163 120 290l27 156h216l-24 -155q-34 -212 -206 -374z" />
<glyph unicode="&#x201a;" horiz-adv-x="497" d="M-64 -224q87 146 113 289l28 166h226l-27 -164q-35 -211 -214 -372z" />
<glyph unicode="&#x201c;" horiz-adv-x="779" d="M191 1047l24 151q17 106 73.5 202.5t140.5 170.5l125 -81q-99 -168 -121 -291l-26 -152h-216zM495 1047l24 151q17 106 73.5 202.5t140.5 170.5l125 -81q-99 -168 -121 -291l-26 -152h-216z" />
<glyph unicode="&#x201d;" horiz-adv-x="786" d="M166 1090q97 163 120 290l27 156h216l-24 -155q-34 -212 -206 -374zM475 1090q97 163 120 290l27 156h216l-24 -155q-34 -212 -206 -374z" />
<glyph unicode="&#x201e;" horiz-adv-x="776" d="M-67 -244q89 158 116 309l34 198h225l-32 -196q-18 -111 -72.5 -212t-137.5 -180zM233 -244q100 178 123 309l34 198h225l-33 -197q-36 -225 -216 -391z" />
<glyph unicode="&#x2022;" horiz-adv-x="725" d="M155 729l2 49q8 104 76.5 169t171.5 63q101 -2 158.5 -65t57.5 -164l-2 -52q-6 -104 -74.5 -168.5t-172.5 -62.5q-100 2 -159.5 66.5t-57.5 164.5z" />
<glyph unicode="&#x2026;" horiz-adv-x="1327" d="M45 138q0 69 46 116t115 47q67 0 113 -42.5t46 -108.5q0 -69 -46 -115.5t-116 -46.5q-67 0 -111.5 41.5t-46.5 108.5zM444 138q0 69 46 116t115 47q67 0 113 -42.5t46 -108.5q0 -69 -46 -115.5t-116 -46.5q-67 0 -111.5 41.5t-46.5 108.5zM837 138q0 69 46 116t115 47 q67 0 113 -42.5t46 -108.5q0 -69 -46 -115.5t-116 -46.5q-67 0 -111.5 41.5t-46.5 108.5z" />
<glyph unicode="&#x202f;" horiz-adv-x="387" />
<glyph unicode="&#x2039;" horiz-adv-x="575" d="M93 513l1 19l288 391h185l-265 -414l114 -385h-157z" />
<glyph unicode="&#x203a;" horiz-adv-x="555" d="M-9 124l266 413l-115 386h159l166 -388l-2 -20l-287 -391h-187z" />
<glyph unicode="&#x205f;" horiz-adv-x="484" />
<glyph unicode="&#x20ac;" d="M78 515l27 153h133l22 124h-133l26 152h125q29 115 76.5 208.5t117.5 168.5t168.5 116t218.5 39q90 -1 203 -33l-63 -244q-66 31 -141 36q-51 1 -94 -15t-73.5 -42.5t-55 -66t-40.5 -79t-29 -88.5h260l-27 -152h-251l-22 -124h253l-27 -153h-247q-35 -286 156 -289 q67 -4 155 29l9 -247q-106 -26 -210 -25q-110 2 -193.5 46.5t-131 118.5t-66 168.5t-4.5 199.5z" />
<glyph unicode="&#x2122;" horiz-adv-x="1110" d="M244 1348l19 108h336l-19 -108h-98l-75 -431h-133l75 431h-105zM558 914l94 542h142l22 -363l157 363h140l-95 -542h-118l58 328l-131 -328l-64 -1l-24 361l-63 -360h-118z" />
<glyph unicode="&#xfb02;" horiz-adv-x="1172" d="M58 0l151 869h-127l37 213l127 1l12 92q21 173 122.5 280t270.5 105q52 0 132 -20l-23 -228q-36 11 -67 11q-65 0 -104 -40.5t-52 -107.5l-14 -93h164l-37 -213h-164l-151 -869h-277zM669 0l266 1536h278l-267 -1536h-277z" />
<glyph unicode="&#xfb03;" horiz-adv-x="1755" d="M58 0l151 869h-127l37 213l127 1l12 92q21 173 122.5 280t270.5 105q52 0 132 -20l-23 -228q-36 11 -67 11q-65 0 -104 -40.5t-52 -107.5l-14 -93h164l-37 -213h-164l-151 -869h-277zM711 0l151 869h-127l37 213h119l8 44q36 203 156 319t320 114q109 -3 283 -62 l-68 -240q-110 50 -217 50q-83 0 -133 -48.5t-66 -133.5l-8 -43h173l-38 -213h-161l-151 -869h-278zM1251 0l188 1082h277l-188 -1082h-277z" />
<glyph unicode="&#xfb04;" horiz-adv-x="1833" d="M58 0l151 869h-127l37 213l127 1l12 92q21 173 122.5 280t270.5 105q52 0 132 -20l-23 -228q-36 11 -67 11q-65 0 -104 -40.5t-52 -107.5l-14 -93h164l-37 -213h-164l-151 -869h-277zM719 0l151 869h-127l37 213l127 1l12 92q21 173 122.5 280t270.5 105q52 0 132 -20 l-23 -228q-36 11 -67 11q-65 0 -104 -40.5t-52 -107.5l-14 -93h164l-37 -213h-164l-151 -869h-277zM1330 0l266 1536h278l-267 -1536h-277z" />
</font>
</defs>
</svg>
